<svg width="56" height="60" viewBox="0 0 56 60" fill="none" xmlns="http://www.w3.org/2000/svg">
<path d="M49.0224 27.3935C49.992 25.5791 50.544 23.5055 50.544 21.3023C50.544 14.1263 44.7264 8.3087 37.5504 8.3087C36.3312 8.3087 35.1552 8.4767 34.0368 8.7935C31.6848 4.9583 27.4464 2.3999 22.6128 2.3999C15.2064 2.3999 9.2064 8.4095 9.2064 15.8159C9.2064 17.5055 9.5184 19.1231 10.0944 20.6111C4.3248 21.8543 0 26.9951 0 33.1439C0 37.0655 1.7616 40.5839 4.5408 42.9311C4.416 43.6271 4.3488 44.3471 4.3488 45.0815C4.3488 51.9359 9.9072 57.4895 16.7568 57.4895C18.7104 57.4895 20.5536 57.0383 22.1952 56.2367C24.0336 58.5311 26.8656 59.9999 30.0336 59.9999C33.9504 59.9999 37.3488 57.7631 39.0096 54.4847C39.7152 54.5951 40.4448 54.6479 41.1888 54.6479C49.3392 54.6479 55.9488 48.0431 55.9488 39.8879C55.9488 34.6175 53.184 29.9855 49.0176 27.3839L49.0224 27.3935Z" fill="#578246"/>
<path d="M49.0224 24.9936C49.992 23.1792 50.544 21.1056 50.544 18.9024C50.544 11.7264 44.7264 5.9088 37.5504 5.9088C36.3312 5.9088 35.1552 6.0768 34.0368 6.3936C31.6848 2.5584 27.4464 0 22.6128 0C15.2064 0 9.2064 6.0096 9.2064 13.416C9.2064 15.1056 9.5184 16.7232 10.0944 18.2112C4.3248 19.4544 0 24.5952 0 30.744C0 34.6656 1.7616 38.184 4.5408 40.5312C4.416 41.2272 4.3488 41.9472 4.3488 42.6816C4.3488 49.536 9.9072 55.0896 16.7568 55.0896C18.7104 55.0896 20.5536 54.6384 22.1952 53.8368C24.0336 56.1312 26.8656 57.6 30.0336 57.6C33.9504 57.6 37.3488 55.3632 39.0096 52.0848C39.7152 52.1952 40.4448 52.248 41.1888 52.248C49.3392 52.248 55.9488 45.6432 55.9488 37.488C55.9488 32.2176 53.184 27.5856 49.0176 24.984L49.0224 24.9936Z" fill="#99C08E"/>
<path d="M19.896 36.811C19.7568 36.811 19.56 36.8206 19.3104 36.8446C19.056 36.8686 18.8736 36.8782 18.7584 36.8782C18.3216 36.8782 18.0048 36.763 17.808 36.5326C17.6112 36.3022 17.5152 35.9326 17.5152 35.4286C17.5152 35.2894 17.5968 34.5646 17.7552 33.2494C19.368 32.7214 20.9472 32.4526 22.488 32.4526C22.6032 32.4526 22.776 32.4574 23.0064 32.4718C23.2368 32.4814 23.4192 32.491 23.5584 32.491L25.9776 32.3518C25.8864 32.1454 25.8336 31.8622 25.824 31.507C25.8144 31.1518 25.7712 30.8734 25.704 30.6766C25.6368 30.4798 25.4832 30.3694 25.2528 30.3502C24.9072 30.283 23.4912 30.2158 21 30.1582C18.5136 30.1006 17.0592 30.0958 16.6464 30.139C16.1184 30.2302 15.6624 30.259 15.2832 30.2254C14.904 30.1918 14.6208 29.9422 14.4384 29.4814C14.0928 28.723 13.9872 27.8686 14.1264 26.923C14.1744 26.6926 14.3664 26.4622 14.712 26.2318C15.0576 26.0014 15.864 25.819 17.1312 25.6798C18.3984 25.5406 19.296 25.5166 19.8288 25.6126H24.168C24.984 25.6126 25.5552 25.603 25.8768 25.579C30.1152 25.531 32.5584 25.5118 33.2016 25.5118C33.8448 25.5118 35.2512 25.5694 37.416 25.6846C39.5808 25.7998 40.7232 25.8574 40.8384 25.8574C40.9536 25.8574 41.16 25.891 41.4624 25.963C41.9472 26.0782 42.2736 26.2462 42.4464 26.4622C42.6192 26.683 42.672 27.0334 42.6 27.5182C42.576 27.7006 42.552 27.8638 42.5328 28.003C42.5088 28.1422 42.4848 28.267 42.4656 28.3822C42.4416 28.4974 42.3984 28.5934 42.3264 28.675C42.2592 28.7566 42.2112 28.8286 42.1872 28.9006C42.1632 28.9726 42.096 29.035 41.9808 29.0926C41.8656 29.1502 41.7792 29.1982 41.7216 29.2318C41.664 29.2654 41.5488 29.3086 41.376 29.3518C41.2032 29.3998 41.0784 29.4334 40.9968 29.4574C40.9152 29.4814 40.7472 29.5246 40.4976 29.5966C40.2432 29.6638 40.0464 29.7118 39.912 29.7358C39.6576 29.803 38.184 29.8798 35.4864 29.9614C32.7888 30.043 31.3056 30.1294 31.0272 30.2206C30.936 30.2446 30.8832 30.3454 30.8736 30.5326C30.864 30.715 30.864 30.9118 30.8736 31.1182C30.8832 31.3246 30.8784 31.5454 30.8544 31.7758C30.8544 31.843 30.864 31.9486 30.888 32.0878C30.912 32.227 30.9216 32.3182 30.9216 32.3662C33.2736 32.4142 35.2896 32.4574 36.9696 32.5054C37.4064 32.5294 37.8096 32.6206 38.1792 32.7838C38.3184 32.8318 38.4384 32.923 38.544 33.0622C38.6496 33.2014 38.6976 33.3262 38.6976 33.4414V33.9262C38.6976 34.5934 38.5968 35.1358 38.4048 35.5486C38.208 35.9614 37.8 36.2734 37.176 36.4798C37.0608 36.5278 36.696 36.5566 36.0864 36.5662C35.4768 36.5758 34.9152 36.6046 34.4112 36.6526C33.9024 36.7006 33.6528 36.7918 33.6528 36.931C33.6288 37.0462 33.6384 37.2286 33.6864 37.483C33.7344 37.7374 33.7536 37.9198 33.7536 38.035C33.7536 38.059 33.7632 38.2558 33.7872 38.6206C33.8112 38.9902 33.8208 39.2302 33.8208 39.3454L38.1408 39.6238C38.1168 39.9214 38.1024 40.5262 38.088 41.4382C38.0736 42.3502 38.0016 43.0558 37.8624 43.5646C37.8384 43.6558 37.7568 43.7614 37.6224 43.8766C37.4832 43.9918 37.368 44.0494 37.2768 44.0494C36.9552 44.0734 35.616 44.083 33.2688 44.083C32.736 44.083 31.968 44.0734 30.9552 44.0494C29.9424 44.0254 29.1696 44.0158 28.6416 44.0158C27.7872 44.0158 26.5056 44.0206 24.7872 44.035C23.0688 44.0446 21.7872 44.0542 20.9328 44.0542H18.1344C17.8128 44.0542 17.5632 43.963 17.3904 43.7758C17.2176 43.5934 17.1312 43.3486 17.1312 43.051C17.1312 42.9598 17.1408 42.8542 17.1648 42.739C17.1648 42.6718 17.184 42.4318 17.2176 42.0286C17.2512 41.6254 17.304 41.3326 17.3712 41.1454C17.5536 40.7326 17.8752 40.4542 18.3408 40.315C18.7536 40.1758 19.3488 40.027 20.1216 39.8638C20.8944 39.7006 21.3504 39.6094 21.4848 39.5854C21.8064 39.5182 22.0416 39.4462 22.1952 39.379C22.344 39.3118 22.5024 39.1822 22.6608 38.9998C22.8192 38.8174 22.9008 38.5726 22.9008 38.275C22.9008 38.1118 22.9248 37.939 22.968 37.7566C23.016 37.5742 23.0784 37.3582 23.16 37.1182C23.2416 36.8782 23.2944 36.7102 23.3136 36.619C22.8768 36.7342 22.6464 36.7918 22.6224 36.7918C21.9312 36.8158 21.288 36.8254 20.688 36.8254H19.8912L19.896 36.811ZM24.768 12.4126C27.3024 12.2302 28.728 12.1246 29.0544 12.1006C29.5824 12.1006 30.1728 12.283 30.816 12.6526C30.9552 12.7198 31.08 12.8638 31.1952 13.0846C31.3104 13.3054 31.368 13.507 31.368 13.6894C31.344 15.1198 31.5168 16.3966 31.8864 17.5246C31.9536 17.755 32.5152 18.1198 33.5616 18.6142C34.608 19.1086 35.352 19.4158 35.7888 19.531C37.2384 19.9246 39.072 20.4766 41.2848 21.1918C41.6544 21.307 41.9136 21.4558 42.0624 21.643C42.2112 21.8254 42.2064 22.1038 42.0432 22.4734C41.976 22.6558 41.9088 22.795 41.8512 22.8862C41.7936 22.9774 41.7456 23.0638 41.712 23.1454C41.6784 23.227 41.6256 23.371 41.5584 23.5774C41.5104 23.8078 41.4624 24.0574 41.4048 24.3214C41.3472 24.5854 41.3184 24.7486 41.3184 24.8062C41.3184 24.8638 41.2608 24.9406 41.1456 25.0318C41.0304 25.123 40.92 25.1758 40.8192 25.1854C40.7136 25.195 40.5024 25.2238 40.1808 25.2718C40.0416 25.2958 39.6528 25.3726 39.0048 25.4974C38.3616 25.6222 37.8768 25.6894 37.5552 25.6894C37.0704 25.6894 36.576 25.4926 36.0672 25.1038C35.8128 24.8734 34.488 24.1726 32.0928 22.9966C29.6976 21.8206 28.0704 21.0382 27.2208 20.6446C26.784 20.4622 26.2896 20.4958 25.7328 20.7502C24.648 21.211 23.3376 21.8686 21.792 22.7182C21.0768 23.1118 20.2752 23.467 19.392 23.7886C18.504 24.1102 17.76 24.2494 17.1648 24.2014C16.704 24.1534 16.392 24.0622 16.2336 23.923C16.0704 23.7838 15.9552 23.4862 15.888 23.0254C15.8208 22.6318 15.7152 22.2286 15.576 21.8158C15.4608 21.4222 15.3936 21.1198 15.3696 20.899C15.3456 20.6782 15.4224 20.4718 15.5952 20.275C15.768 20.0782 15.936 19.9342 16.0944 19.843C16.2528 19.7518 16.5792 19.5886 17.064 19.3582C17.8032 18.9646 19.0416 18.3742 20.7792 17.5774C22.5168 16.7806 23.5632 16.3054 23.9088 16.1422C24.3024 15.9598 24.5664 15.7102 24.7056 15.3982C24.8448 15.0862 24.9264 14.6878 24.9456 14.2078C24.9456 14.1406 24.888 13.5406 24.7728 12.4126H24.768ZM26.8416 39.0574C26.8416 39.403 27.024 39.5758 27.3936 39.5758H27.5328C27.6912 39.5758 28.0464 39.5518 28.5888 39.5086C29.1312 39.4606 29.5488 39.427 29.8512 39.403C29.9184 39.379 30.0048 39.3358 30.1104 39.2638C30.216 39.1966 30.264 39.139 30.264 39.091C30.288 38.6542 30.2976 38.227 30.2976 37.8142C30.2976 37.2862 30.288 36.7534 30.264 36.2254C30.264 36.1774 30.2016 36.1198 30.072 36.0526C29.9472 35.9854 29.8368 35.947 29.7456 35.947H29.712C29.4816 35.971 28.6608 36.0862 27.2592 36.2926C27.0048 37.8574 26.8656 38.7214 26.8464 38.8846V39.0574H26.8416Z" fill="#578246"/>
<path d="M20.0249 38.7309C19.8857 38.7309 19.6889 38.7405 19.4393 38.7645C19.1849 38.7885 19.0025 38.7981 18.8873 38.7981C18.4505 38.7981 18.1337 38.6829 17.9369 38.4525C17.7401 38.2221 17.6441 37.8525 17.6441 37.3485C17.6441 37.2093 17.7257 36.4845 17.8841 35.1693C19.4969 34.6413 21.0761 34.3725 22.6169 34.3725C22.7321 34.3725 22.9049 34.3773 23.1353 34.3917C23.3657 34.4013 23.5481 34.4109 23.6873 34.4109L26.1065 34.2717C26.0153 34.0653 25.9625 33.7821 25.9529 33.4269C25.9385 33.0717 25.9001 32.7933 25.8329 32.5965C25.7657 32.3997 25.6121 32.2893 25.3817 32.2701C25.0361 32.2029 23.6201 32.1357 21.1289 32.0781C18.6425 32.0205 17.1881 32.0157 16.7753 32.0589C16.2473 32.1501 15.7913 32.1789 15.4121 32.1453C15.0329 32.1117 14.7497 31.8621 14.5673 31.4013C14.2217 30.6429 14.1161 29.7885 14.2553 28.8429C14.3033 28.6125 14.4953 28.3821 14.8409 28.1517C15.1865 27.9213 15.9929 27.7389 17.2601 27.5997C18.5273 27.4605 19.4249 27.4365 19.9577 27.5325H24.2969C25.1129 27.5325 25.6841 27.5229 26.0057 27.4989C30.2441 27.4509 32.6873 27.4317 33.3305 27.4317C33.9737 27.4317 35.3801 27.4893 37.5449 27.6045C39.7097 27.7197 40.8521 27.7773 40.9673 27.7773C41.0825 27.7773 41.2889 27.8109 41.5913 27.8829C42.0761 27.9981 42.4025 28.1661 42.5753 28.3821C42.7481 28.6029 42.8009 28.9533 42.7289 29.4381C42.7049 29.6205 42.6809 29.7837 42.6617 29.9229C42.6377 30.0621 42.6137 30.1869 42.5945 30.3021C42.5705 30.4173 42.5273 30.5133 42.4553 30.5949C42.3881 30.6765 42.3401 30.7485 42.3161 30.8205C42.2921 30.8877 42.2249 30.9549 42.1097 31.0125C41.9945 31.0701 41.9081 31.1181 41.8505 31.1517C41.7929 31.1853 41.6777 31.2285 41.5049 31.2717C41.3321 31.3197 41.2073 31.3533 41.1257 31.3773C41.0441 31.4013 40.8761 31.4445 40.6265 31.5165C40.3769 31.5885 40.1753 31.6317 40.0409 31.6557C39.7865 31.7229 38.3129 31.7997 35.6153 31.8813C32.9177 31.9629 31.4345 32.0493 31.1561 32.1405C31.0649 32.1645 31.0121 32.2653 31.0025 32.4525C30.9929 32.6349 30.9929 32.8317 31.0025 33.0381C31.0121 33.2445 31.0073 33.4653 30.9833 33.6957C30.9833 33.7629 30.9929 33.8685 31.0169 34.0077C31.0409 34.1469 31.0505 34.2381 31.0505 34.2861C33.4025 34.3341 35.4185 34.3773 37.0985 34.4253C37.5353 34.4493 37.9385 34.5405 38.3081 34.7037C38.4473 34.7517 38.5673 34.8429 38.6729 34.9821C38.7785 35.1213 38.8265 35.2461 38.8265 35.3613V35.8461C38.8265 36.5133 38.7305 37.0557 38.5337 37.4685C38.3369 37.8813 37.9289 38.1933 37.3049 38.3997C37.1897 38.4477 36.8249 38.4765 36.2153 38.4861C35.6057 38.4957 35.0441 38.5245 34.5401 38.5725C34.0313 38.6205 33.7817 38.7117 33.7817 38.8509C33.7577 38.9661 33.7721 39.1485 33.8153 39.4029C33.8633 39.6573 33.8825 39.8397 33.8825 39.9549C33.8825 39.9789 33.8921 40.1757 33.9161 40.5405C33.9401 40.9101 33.9497 41.1501 33.9497 41.2653L38.2697 41.5437C38.2457 41.8413 38.2313 42.4461 38.2169 43.3581C38.2073 44.2701 38.1305 44.9757 37.9913 45.4845C37.9673 45.5757 37.8857 45.6813 37.7513 45.7965C37.6121 45.9117 37.4969 45.9693 37.4057 45.9693C37.0841 45.9933 35.7449 46.0029 33.3977 46.0029C32.8697 46.0029 32.0969 45.9933 31.0841 45.9693C30.0713 45.9453 29.2985 45.9357 28.7705 45.9357C27.9161 45.9357 26.6345 45.9405 24.9161 45.9549C23.1977 45.9645 21.9161 45.9741 21.0617 45.9741H18.2633C17.9417 45.9741 17.6921 45.8829 17.5193 45.6957C17.3465 45.5133 17.2601 45.2685 17.2601 44.9709C17.2601 44.8797 17.2697 44.7741 17.2937 44.6589C17.2937 44.5917 17.3129 44.3517 17.3465 43.9485C17.3801 43.5453 17.4329 43.2525 17.5001 43.0653C17.6825 42.6525 18.0089 42.3741 18.4697 42.2349C18.8825 42.0957 19.4777 41.9469 20.2505 41.7837C21.0233 41.6205 21.4793 41.5293 21.6137 41.5053C21.9353 41.4381 22.1705 41.3661 22.3241 41.2989C22.4729 41.2317 22.6313 41.1021 22.7897 40.9197C22.9481 40.7373 23.0297 40.4925 23.0297 40.1949C23.0297 40.0317 23.0537 39.8589 23.0969 39.6765C23.1449 39.4941 23.2073 39.2781 23.2889 39.0381C23.3705 38.7981 23.4233 38.6301 23.4425 38.5389C23.0057 38.6541 22.7753 38.7117 22.7513 38.7117C22.0601 38.7357 21.4169 38.7453 20.8169 38.7453H20.0201L20.0249 38.7309ZM24.8969 14.3325C27.4313 14.1501 28.8569 14.0445 29.1833 14.0205C29.7113 14.0205 30.3017 14.2029 30.9449 14.5725C31.0841 14.6397 31.2089 14.7837 31.3241 15.0045C31.4393 15.2253 31.4969 15.4269 31.4969 15.6093C31.4729 17.0397 31.6457 18.3165 32.0153 19.4445C32.0825 19.6749 32.6441 20.0397 33.6905 20.5341C34.7369 21.0285 35.4809 21.3357 35.9177 21.4509C37.3673 21.8445 39.2009 22.3965 41.4137 23.1117C41.7833 23.2269 42.0425 23.3757 42.1913 23.5629C42.3401 23.7453 42.3353 24.0237 42.1721 24.3933C42.1049 24.5757 42.0377 24.7149 41.9801 24.8061C41.9225 24.8973 41.8745 24.9837 41.8409 25.0653C41.8073 25.1469 41.7545 25.2909 41.6873 25.4973C41.6393 25.7277 41.5865 25.9773 41.5337 26.2413C41.4761 26.5053 41.4473 26.6685 41.4473 26.7261C41.4473 26.7837 41.3897 26.8605 41.2745 26.9517C41.1593 27.0429 41.0489 27.0957 40.9481 27.1053C40.8425 27.1149 40.6313 27.1437 40.3097 27.1917C40.1705 27.2157 39.7769 27.2925 39.1337 27.4173C38.4905 27.5421 38.0057 27.6093 37.6841 27.6093C37.1993 27.6093 36.7049 27.4125 36.1961 27.0237C35.9417 26.7933 34.6169 26.0925 32.2217 24.9165C29.8265 23.7405 28.1993 22.9581 27.3497 22.5645C26.9129 22.3821 26.4185 22.4157 25.8617 22.6701C24.7769 23.1309 23.4665 23.7885 21.9209 24.6381C21.2057 25.0317 20.4041 25.3869 19.5209 25.7085C18.6329 26.0301 17.8889 26.1693 17.2937 26.1213C16.8329 26.0733 16.5209 25.9821 16.3625 25.8429C16.1993 25.7037 16.0841 25.4061 16.0169 24.9453C15.9497 24.5517 15.8441 24.1485 15.7049 23.7357C15.5897 23.3421 15.5225 23.0397 15.4985 22.8189C15.4745 22.5981 15.5513 22.3917 15.7241 22.1949C15.8969 21.9981 16.0649 21.8541 16.2233 21.7629C16.3865 21.6717 16.7081 21.5085 17.1929 21.2781C17.9321 20.8845 19.1705 20.2941 20.9081 19.4973C22.6457 18.7005 23.6921 18.2253 24.0377 18.0621C24.4313 17.8797 24.6953 17.6301 24.8345 17.3181C24.9737 17.0061 25.0553 16.6077 25.0745 16.1277C25.0745 16.0605 25.0169 15.4605 24.9017 14.3325H24.8969ZM26.9705 40.9773C26.9705 41.3229 27.1529 41.4957 27.5225 41.4957H27.6617C27.8249 41.4957 28.1753 41.4717 28.7177 41.4285C29.2601 41.3805 29.6777 41.3469 29.9801 41.3229C30.0473 41.2989 30.1337 41.2557 30.2393 41.1837C30.3449 41.1117 30.3929 41.0589 30.3929 41.0109C30.4169 40.5741 30.4265 40.1469 30.4265 39.7341C30.4265 39.2061 30.4169 38.6733 30.3929 38.1453C30.3929 38.0973 30.3305 38.0397 30.2009 37.9725C30.0713 37.9053 29.9657 37.8669 29.8745 37.8669H29.8409C29.6105 37.8909 28.7945 38.0061 27.3881 38.2125C27.1337 39.7773 26.9945 40.6413 26.9753 40.8045V40.9773H26.9705Z" fill="white"/>
</svg>
