<svg width="33" height="36" viewBox="0 0 33 36" fill="none" xmlns="http://www.w3.org/2000/svg">
<path d="M5.64435 4.28804C5.64435 4.28804 0.604351 6.36644 0.143551 13.5232C-0.317249 20.68 0.373945 27.8704 1.60755 30.8944C2.84115 33.9184 5.30355 35.92 10.3051 35.92C15.3067 35.92 18.3883 35.6512 23.1595 35.92C26.0203 36.0832 29.6251 36.4576 31.5499 31.9936C33.4747 27.5296 32.3947 13.1392 30.7435 8.05604C29.6539 4.71044 27.1963 2.06084 18.6235 2.43524C10.6939 2.78084 8.85075 2.78084 5.65395 4.28324L5.64435 4.28804Z" fill="#C18E1B"/>
<path d="M5.64435 1.88814C5.64435 1.88814 0.604351 3.96654 0.143551 11.1233C-0.317249 18.2801 0.373945 25.4705 1.60755 28.4945C2.84115 31.5185 5.30355 33.5201 10.3051 33.5201C15.3067 33.5201 18.3883 33.2513 23.1595 33.5201C26.0203 33.6833 29.6251 34.0577 31.5499 29.5937C33.4747 25.1297 32.3947 10.7393 30.7435 5.65614C29.6539 2.31054 27.1963 -0.339061 18.6235 0.0353387C10.6939 0.380939 8.85075 0.380938 5.65395 1.88334L5.64435 1.88814Z" fill="#FED054"/>
<path d="M11.7645 7.8257C11.8845 7.8401 12.0718 7.86409 12.331 7.90729C12.5854 7.94569 12.8158 7.98409 13.0173 8.01769C13.2189 8.05129 13.4062 8.09449 13.5838 8.14729C13.6366 8.17609 13.8381 8.2433 14.1789 8.3489C14.5197 8.4545 14.7549 8.5313 14.8749 8.56969C14.9949 8.6081 15.187 8.67529 15.451 8.77129C15.715 8.86729 15.9357 8.9585 16.1277 9.0449C16.3149 9.1313 16.5022 9.2225 16.6942 9.3185C17.395 9.7073 17.8462 10.2305 18.0526 10.8929C18.259 11.5505 18.2349 12.2513 17.9805 12.9905C17.6445 14.0945 17.2414 15.1121 16.771 16.0529C16.651 16.2833 16.4781 16.4945 16.2573 16.6961C16.0365 16.8977 15.8109 17.0369 15.5805 17.1185C13.9533 17.6849 12.7246 17.9969 11.8894 18.0641C10.5982 18.1697 9.55655 17.8577 8.76455 17.1185C8.29415 16.6769 7.96295 15.9617 7.77575 14.9825C7.31975 12.5633 7.90535 10.5089 9.52775 8.81449C10.1325 8.18089 10.8765 7.8545 11.7645 7.8257ZM20.5726 22.1777C18.5182 22.4465 17.4142 22.5953 17.2654 22.6193C16.459 22.7393 14.9517 22.8353 12.7389 22.9025C10.5261 22.9697 9.00455 22.9409 8.17415 22.8209C8.09255 22.8065 8.01095 22.7585 7.91975 22.6817C7.83335 22.6001 7.79015 22.5281 7.79015 22.4609C7.73735 21.6833 7.73735 21.0497 7.79015 20.5649C7.81895 20.2289 7.95815 19.8305 8.21255 19.3745C9.08615 19.1345 9.69095 19.0001 10.027 18.9713C10.267 18.9329 11.419 18.9473 13.483 19.0193C15.547 19.0913 16.6798 19.1297 16.8814 19.1297C17.1358 19.1153 17.5198 19.1057 18.0286 19.1009C18.5374 19.0961 18.9214 19.0865 19.1757 19.0721L20.6254 18.9329C20.7214 16.6481 20.7742 15.3857 20.7886 15.1409L21.1101 7.6193C21.1485 7.5665 21.2157 7.50409 21.3117 7.43689C21.4077 7.36969 21.6142 7.27369 21.9358 7.15369C22.2573 7.03369 22.5934 6.9569 22.9438 6.9329C23.1166 6.9185 23.3422 6.9329 23.611 6.9617C23.8798 6.9953 24.1101 7.03849 24.2973 7.09129L24.5805 7.15369C24.6333 7.20649 24.7053 7.2737 24.7917 7.3457C24.8781 7.4177 24.979 7.56649 25.0942 7.78729C25.2094 8.00809 25.2382 8.2145 25.1854 8.4017C24.9982 8.9681 24.8542 10.8497 24.763 14.0561C24.667 17.2625 24.6093 18.9665 24.5805 19.1681C24.5661 19.3313 24.5614 19.6481 24.571 20.1233C24.5758 20.5985 24.5517 20.9153 24.4989 21.0593C24.4605 21.2225 24.4461 21.6929 24.4701 22.4705C24.4942 23.2481 24.4701 23.7089 24.4174 23.8433C24.2973 24.2177 24.1293 24.4769 23.9133 24.6113C23.6973 24.7457 23.3805 24.8129 22.9677 24.8129C22.2813 24.7985 21.7726 24.7649 21.4366 24.7121C20.9662 24.6161 20.7598 24.3473 20.8126 23.9057C20.827 23.8001 20.7886 23.5265 20.7022 23.0897C20.6158 22.6529 20.5726 22.3457 20.5726 22.1729V22.1777ZM14.4045 12.9857C14.4045 12.3953 14.2894 11.9729 14.0638 11.7137C13.8334 11.4593 13.4637 11.3297 12.9549 11.3297C12.3645 11.3297 11.8413 11.5601 11.3805 12.0257C10.9245 12.4913 10.6893 13.0241 10.6749 13.6289C10.6749 13.9649 10.8813 14.3201 11.2989 14.6897C11.7165 15.0593 12.1102 15.2225 12.4894 15.1841C12.9886 15.1313 13.4301 14.9009 13.8189 14.4977C14.2077 14.0945 14.4045 13.5905 14.4045 12.9857Z" fill="#C18E1B"/>
<path d="M11.7645 9.26564C11.8845 9.28004 12.0718 9.30404 12.331 9.34724C12.5854 9.38564 12.8158 9.42404 13.0173 9.45764C13.2189 9.49124 13.4062 9.53444 13.5838 9.58724C13.6366 9.61604 13.8381 9.68324 14.1789 9.78884C14.5197 9.89444 14.7549 9.97124 14.8749 10.0096C14.9949 10.048 15.187 10.1152 15.451 10.2112C15.715 10.3072 15.9357 10.3984 16.1277 10.4848C16.3149 10.5712 16.5022 10.6624 16.6942 10.7584C17.395 11.1472 17.8462 11.6704 18.0526 12.3328C18.259 12.9904 18.2349 13.6912 17.9805 14.4304C17.6445 15.5344 17.2414 16.552 16.771 17.4928C16.651 17.7232 16.4781 17.9344 16.2573 18.136C16.0365 18.3376 15.8109 18.4768 15.5805 18.5584C13.9533 19.1248 12.7246 19.4368 11.8894 19.504C10.5982 19.6096 9.55655 19.2976 8.76455 18.5584C8.29415 18.1168 7.96295 17.4016 7.77575 16.4224C7.31975 14.0032 7.90535 11.9488 9.52775 10.2544C10.1325 9.62084 10.8765 9.29444 11.7645 9.26564ZM20.5726 23.6176C18.5182 23.8864 17.4142 24.0352 17.2654 24.0592C16.459 24.1792 14.9517 24.2752 12.7389 24.3424C10.5261 24.4096 9.00455 24.3808 8.17415 24.2608C8.09255 24.2464 8.01095 24.1984 7.91975 24.1216C7.83335 24.04 7.79015 23.968 7.79015 23.9008C7.73735 23.1232 7.73735 22.4896 7.79015 22.0048C7.81895 21.6688 7.95815 21.2704 8.21255 20.8144C9.08615 20.5744 9.69095 20.44 10.027 20.4112C10.267 20.3728 11.419 20.3872 13.483 20.4592C15.547 20.5312 16.6798 20.5696 16.8814 20.5696C17.1358 20.5552 17.5198 20.5456 18.0286 20.5408C18.5374 20.536 18.9214 20.5264 19.1757 20.512L20.6254 20.3728C20.7214 18.088 20.7742 16.8256 20.7886 16.5808L21.1101 9.05924C21.1485 9.00644 21.2157 8.94404 21.3117 8.87684C21.4077 8.80964 21.6142 8.71364 21.9358 8.59364C22.2573 8.47364 22.5934 8.39684 22.9438 8.37284C23.1166 8.35844 23.3422 8.37284 23.611 8.40164C23.8798 8.43524 24.1101 8.47844 24.2973 8.53124L24.5805 8.59364C24.6333 8.64644 24.7053 8.71364 24.7917 8.78564C24.8781 8.85764 24.979 9.00644 25.0942 9.22724C25.2094 9.44804 25.2382 9.65444 25.1854 9.84164C24.9982 10.408 24.8542 12.2896 24.763 15.496C24.667 18.7024 24.6093 20.4064 24.5805 20.608C24.5661 20.7712 24.5614 21.088 24.571 21.5632C24.5758 22.0384 24.5517 22.3552 24.4989 22.4992C24.4605 22.6624 24.4461 23.1328 24.4701 23.9104C24.4942 24.688 24.4701 25.1488 24.4174 25.2832C24.2973 25.6576 24.1293 25.9168 23.9133 26.0512C23.6973 26.1856 23.3805 26.2528 22.9677 26.2528C22.2813 26.2384 21.7726 26.2048 21.4366 26.152C20.9662 26.056 20.7598 25.7872 20.8126 25.3456C20.827 25.24 20.7886 24.9664 20.7022 24.5296C20.6158 24.0928 20.5726 23.7856 20.5726 23.6128V23.6176ZM14.4045 14.4256C14.4045 13.8352 14.2894 13.4128 14.0638 13.1536C13.8334 12.8992 13.4637 12.7696 12.9549 12.7696C12.3645 12.7696 11.8413 13 11.3805 13.4656C10.9245 13.9312 10.6893 14.464 10.6749 15.0688C10.6749 15.4048 10.8813 15.76 11.2989 16.1296C11.7165 16.4992 12.1102 16.6624 12.4894 16.624C12.9886 16.5712 13.4301 16.3408 13.8189 15.9376C14.2077 15.5344 14.4045 15.0304 14.4045 14.4256Z" fill="white"/>
</svg>
