<svg width="41" height="46" viewBox="0 0 41 46" fill="none" xmlns="http://www.w3.org/2000/svg">
<path d="M20.5193 2.42585C21.7385 2.45465 23.4089 2.40185 25.1945 2.42585C28.9913 2.48825 37.9865 2.39705 39.7721 9.43865C41.8553 17.661 40.1705 35.1523 39.3737 38.0611C38.5817 40.9699 37.1945 45.597 29.9897 45.597H12.8681C11.6777 45.597 2.55772 45.1362 0.968918 36.4099C-0.615083 27.6882 0.176917 15.6594 0.359318 13.0482C0.541718 10.4418 1.03612 3.23225 9.89212 2.69945C15.3929 2.37305 18.3161 2.37305 20.5193 2.42585Z" fill="#BC3C6A"/>
<path d="M20.5193 0.0259457C21.7385 0.0547457 23.4089 0.00194571 25.1945 0.0259457C28.9913 0.0883457 37.9865 -0.00285461 39.7721 7.03875C41.8553 15.2611 40.1705 32.7523 39.3737 35.6611C38.5817 38.57 37.1945 43.1971 29.9897 43.1971H12.8681C11.6777 43.1971 2.55772 42.7363 0.968918 34.0099C-0.615083 25.2883 0.176917 13.2595 0.359318 10.6483C0.541718 8.04195 1.03612 0.832346 9.89212 0.299546C15.3929 -0.0268545 18.3161 -0.0268543 20.5193 0.0259457Z" fill="#F885A7"/>
<path d="M18.8535 20.3685C18.8199 19.9461 18.8055 19.5813 18.8151 19.2741C18.8247 18.9669 18.9111 18.7077 19.0791 18.4965C19.2471 18.2853 19.5159 18.1365 19.8855 18.0453C20.6967 17.8677 21.1623 17.7813 21.2871 17.7813C21.7095 17.7477 22.0407 17.7477 22.2759 17.7813C22.5159 17.8149 22.6791 17.9157 22.7751 18.0837C22.8711 18.2517 22.9575 18.5733 23.0247 19.0485C23.0439 19.0821 23.0487 19.2261 23.0487 19.4709C23.0487 19.7157 23.0487 19.9509 23.0631 20.1717C23.0727 20.3925 23.0919 20.5029 23.1303 20.5029C23.5863 20.5029 24.6327 20.5317 26.2695 20.5941C27.9063 20.6565 28.9431 20.6853 29.3847 20.6853L31.6263 20.4741C31.6791 20.4933 31.7559 20.5317 31.8519 20.5941C31.9479 20.6565 32.0679 20.7813 32.2071 20.9637C32.3463 21.1509 32.3991 21.3477 32.3655 21.5589C32.3463 21.6645 32.2311 22.3605 32.0247 23.6421C31.7799 23.6613 31.6455 23.6709 31.6263 23.6709C31.5399 23.6709 28.4487 23.6373 22.3623 23.5653C22.0263 23.5653 21.1239 23.5893 19.6407 23.6325C18.1623 23.6757 17.3079 23.6997 17.0823 23.6997C16.6599 23.7189 15.5847 23.7093 13.8615 23.6709C12.1383 23.6373 11.0727 23.6085 10.6647 23.5893C10.5591 23.5893 10.3047 23.6085 9.90154 23.6421C9.49834 23.6757 9.23914 23.6949 9.13354 23.6949C8.97514 23.6949 8.84554 23.6805 8.73994 23.6565C8.63434 23.6277 8.55754 23.5749 8.51434 23.4837C8.47114 23.3973 8.44234 23.3205 8.43274 23.2581C8.42314 23.1957 8.41354 23.0709 8.40874 22.8741C8.39914 22.6821 8.39434 22.5285 8.39434 22.4229C8.36074 22.1061 8.36074 21.6501 8.39434 21.0501C8.41354 20.7333 8.57194 20.5749 8.86954 20.5749C9.31114 20.5557 10.6023 20.5653 12.7479 20.6037C14.8935 20.6373 16.2231 20.6469 16.7367 20.6277C16.9479 20.6277 17.6535 20.5413 18.8487 20.3637L18.8535 20.3685ZM11.6199 10.6533C11.7591 10.6341 11.9511 10.5957 12.1863 10.5333C12.4263 10.4709 12.6327 10.4277 12.8055 10.3989C12.9831 10.3749 13.1559 10.3509 13.3335 10.3317C16.4151 10.2261 18.8007 10.1733 20.4903 10.1733C22.4103 10.1733 24.4599 10.2357 26.6439 10.3557C27.2583 10.3557 27.6375 10.3701 27.7767 10.3941C27.9159 10.4229 28.1127 10.4613 28.3575 10.5141C28.6023 10.5669 28.7943 10.6485 28.9239 10.7637C29.0583 10.8789 29.1495 11.0229 29.2023 11.2005C29.2215 11.2725 29.2455 11.3589 29.2839 11.4645C29.3559 11.7477 29.3991 11.9637 29.4135 12.1269C29.4327 12.3189 29.4471 12.5157 29.4663 12.7077C29.5383 12.7413 29.5575 13.4805 29.5335 14.9253C29.5047 16.3701 29.4951 17.1093 29.4951 17.1429C29.5143 17.6709 29.4087 18.0597 29.1783 18.3045C28.9479 18.5493 28.5783 18.6837 28.0695 18.7029C27.9111 18.7029 27.6807 18.6885 27.3831 18.6645C27.0855 18.6357 26.8647 18.6261 26.7207 18.6261C25.9623 18.6453 25.5687 17.6565 25.5303 15.6693C25.5303 15.0357 25.4487 14.6469 25.2807 14.5077C25.1127 14.3685 24.7287 14.2773 24.1335 14.2437C24.0471 14.2437 23.9751 14.2341 23.9223 14.2149C22.3911 14.1285 21.4503 14.0853 21.0951 14.0853C18.4743 14.0325 15.9735 14.0229 13.5975 14.0565H12.8583C12.6999 14.0565 12.5415 14.0325 12.3831 13.9893C12.2247 13.9461 12.1191 13.9173 12.0663 13.9125C12.0135 13.9029 11.9607 13.8309 11.9079 13.7013C11.8551 13.5717 11.8263 13.4709 11.8263 13.4133C11.8263 13.3557 11.8167 13.1973 11.8023 12.9525C11.7831 12.7077 11.7687 12.5013 11.7495 12.3429C11.6631 11.2341 11.6199 10.6725 11.6199 10.6533ZM19.5927 24.3813C20.6151 24.3813 21.8103 24.4629 23.1831 24.6309C24.5559 24.7989 25.7175 25.0149 26.6679 25.2789C28.2855 25.7541 29.1831 26.5989 29.3607 27.8133C29.4135 28.1301 29.4423 28.4229 29.4423 28.6869C29.4423 29.8677 28.9767 30.8085 28.0407 31.5093C27.4071 31.9845 26.8839 32.3589 26.4711 32.6325C26.0583 32.9061 25.5351 33.1653 24.9015 33.4101C24.2679 33.6549 23.6343 33.7893 23.0007 33.8085C22.7559 33.8085 22.1175 33.8373 21.0855 33.8997C20.0583 33.9621 19.3671 33.9909 19.0119 33.9909C18.5175 33.9909 18.0807 33.9573 17.6919 33.8853C17.6055 33.8853 17.4807 33.8661 17.3223 33.8325C16.5831 33.7077 16.0215 33.6069 15.6327 33.5301C15.2439 33.4533 14.7735 33.2901 14.2215 33.0405C13.6647 32.7957 13.1943 32.4789 12.8103 32.0901C12.1047 31.4037 11.7543 30.7605 11.7543 30.1605C11.7543 28.9269 11.9319 28.0149 12.2823 27.4149C13.2663 25.7589 15.2919 24.7749 18.3543 24.4581C18.7575 24.4053 19.1751 24.3765 19.5927 24.3765V24.3813ZM23.4711 30.5301C23.9127 30.5301 24.2871 30.3525 24.5943 30.0021C24.9015 29.6517 25.0551 29.2197 25.0551 28.7061C25.0551 27.9669 24.6519 27.5109 23.8407 27.3333C22.9767 27.1557 21.2631 27.0693 18.6903 27.0693H18.6663C18.4215 27.0693 18.2055 27.1125 18.0183 27.1989C17.8359 27.2853 17.6823 27.4245 17.5719 27.6069C17.4567 27.7893 17.3799 27.9525 17.3319 28.0965C17.2887 28.2357 17.2311 28.4373 17.1591 28.7013C17.1255 28.8261 17.1063 28.9413 17.1063 29.0469C17.1063 29.3301 17.2071 29.5557 17.4087 29.7333C17.6103 29.9109 17.8599 30.0213 18.1623 30.0789C18.4599 30.1509 18.8679 30.2085 19.3767 30.2613C19.8855 30.3141 20.3367 30.3477 20.7207 30.3669C21.1095 30.3861 21.6039 30.4101 22.2135 30.4437C22.8183 30.4773 23.2119 30.5061 23.3895 30.5253H23.4711V30.5301Z" fill="#BC3C6A"/>
<path d="M18.8535 21.8085C18.8199 21.3861 18.8055 21.0213 18.8151 20.7141C18.8247 20.4069 18.9111 20.1477 19.0791 19.9365C19.2471 19.7253 19.5159 19.5765 19.8855 19.4853C20.6967 19.3077 21.1623 19.2213 21.2871 19.2213C21.7095 19.1877 22.0407 19.1877 22.2759 19.2213C22.5159 19.2549 22.6791 19.3557 22.7751 19.5237C22.8711 19.6917 22.9575 20.0133 23.0247 20.4885C23.0439 20.5221 23.0487 20.6661 23.0487 20.9109C23.0487 21.1557 23.0487 21.3909 23.0631 21.6117C23.0727 21.8325 23.0919 21.9429 23.1303 21.9429C23.5863 21.9429 24.6327 21.9717 26.2695 22.0341C27.9063 22.0965 28.9431 22.1253 29.3847 22.1253L31.6263 21.9141C31.6791 21.9333 31.7559 21.9717 31.8519 22.0341C31.9479 22.0965 32.0679 22.2213 32.2071 22.4037C32.3463 22.5909 32.3991 22.7877 32.3655 22.9989C32.3463 23.1045 32.2311 23.8005 32.0247 25.0821C31.7799 25.1013 31.6455 25.1109 31.6263 25.1109C31.5399 25.1109 28.4487 25.0773 22.3623 25.0053C22.0263 25.0053 21.1239 25.0293 19.6407 25.0725C18.1623 25.1157 17.3079 25.1397 17.0823 25.1397C16.6599 25.1589 15.5847 25.1493 13.8615 25.1109C12.1383 25.0773 11.0727 25.0485 10.6647 25.0293C10.5591 25.0293 10.3047 25.0485 9.90154 25.0821C9.49834 25.1157 9.23914 25.1349 9.13354 25.1349C8.97514 25.1349 8.84554 25.1205 8.73994 25.0965C8.63434 25.0677 8.55754 25.0149 8.51434 24.9237C8.47114 24.8373 8.44234 24.7605 8.43274 24.6981C8.42314 24.6357 8.41354 24.5109 8.40874 24.3141C8.39914 24.1221 8.39434 23.9685 8.39434 23.8629C8.36074 23.5461 8.36074 23.0901 8.39434 22.4901C8.41354 22.1733 8.57194 22.0149 8.86954 22.0149C9.31114 21.9957 10.6023 22.0053 12.7479 22.0437C14.8935 22.0773 16.2231 22.0869 16.7367 22.0677C16.9479 22.0677 17.6535 21.9813 18.8487 21.8037L18.8535 21.8085ZM11.6199 12.0933C11.7591 12.0741 11.9511 12.0357 12.1863 11.9733C12.4263 11.9109 12.6327 11.8677 12.8055 11.8389C12.9831 11.8149 13.1559 11.7909 13.3335 11.7717C16.4151 11.6661 18.8007 11.6133 20.4903 11.6133C22.4103 11.6133 24.4599 11.6757 26.6439 11.7957C27.2583 11.7957 27.6375 11.8101 27.7767 11.8341C27.9159 11.8629 28.1127 11.9013 28.3575 11.9541C28.6023 12.0069 28.7943 12.0885 28.9239 12.2037C29.0583 12.3189 29.1495 12.4629 29.2023 12.6405C29.2215 12.7125 29.2455 12.7989 29.2839 12.9045C29.3559 13.1877 29.3991 13.4037 29.4135 13.5669C29.4327 13.7589 29.4471 13.9557 29.4663 14.1477C29.5383 14.1813 29.5575 14.9205 29.5335 16.3653C29.5047 17.8101 29.4951 18.5493 29.4951 18.5829C29.5143 19.1109 29.4087 19.4997 29.1783 19.7445C28.9479 19.9893 28.5783 20.1237 28.0695 20.1429C27.9111 20.1429 27.6807 20.1285 27.3831 20.1045C27.0855 20.0757 26.8647 20.0661 26.7207 20.0661C25.9623 20.0853 25.5687 19.0965 25.5303 17.1093C25.5303 16.4757 25.4487 16.0869 25.2807 15.9477C25.1127 15.8085 24.7287 15.7173 24.1335 15.6837C24.0471 15.6837 23.9751 15.6741 23.9223 15.6549C22.3911 15.5685 21.4503 15.5253 21.0951 15.5253C18.4743 15.4725 15.9735 15.4629 13.5975 15.4965H12.8583C12.6999 15.4965 12.5415 15.4725 12.3831 15.4293C12.2247 15.3861 12.1191 15.3573 12.0663 15.3525C12.0135 15.3429 11.9607 15.2709 11.9079 15.1413C11.8551 15.0117 11.8263 14.9109 11.8263 14.8533C11.8263 14.7957 11.8167 14.6373 11.8023 14.3925C11.7831 14.1477 11.7687 13.9413 11.7495 13.7829C11.6631 12.6741 11.6199 12.1125 11.6199 12.0933ZM19.5927 25.8213C20.6151 25.8213 21.8103 25.9029 23.1831 26.0709C24.5559 26.2389 25.7175 26.4549 26.6679 26.7189C28.2855 27.1941 29.1831 28.0389 29.3607 29.2533C29.4135 29.5701 29.4423 29.8629 29.4423 30.1269C29.4423 31.3077 28.9767 32.2485 28.0407 32.9493C27.4071 33.4245 26.8839 33.7989 26.4711 34.0725C26.0583 34.3461 25.5351 34.6053 24.9015 34.8501C24.2679 35.0949 23.6343 35.2293 23.0007 35.2485C22.7559 35.2485 22.1175 35.2773 21.0855 35.3397C20.0583 35.4021 19.3671 35.4309 19.0119 35.4309C18.5175 35.4309 18.0807 35.3973 17.6919 35.3253C17.6055 35.3253 17.4807 35.3061 17.3223 35.2725C16.5831 35.1477 16.0215 35.0469 15.6327 34.9701C15.2439 34.8933 14.7735 34.7301 14.2215 34.4805C13.6647 34.2357 13.1943 33.9189 12.8103 33.5301C12.1047 32.8437 11.7543 32.2005 11.7543 31.6005C11.7543 30.3669 11.9319 29.4549 12.2823 28.8549C13.2663 27.1989 15.2919 26.2149 18.3543 25.8981C18.7575 25.8453 19.1751 25.8165 19.5927 25.8165V25.8213ZM23.4711 31.9701C23.9127 31.9701 24.2871 31.7925 24.5943 31.4421C24.9015 31.0917 25.0551 30.6597 25.0551 30.1461C25.0551 29.4069 24.6519 28.9509 23.8407 28.7733C22.9767 28.5957 21.2631 28.5093 18.6903 28.5093H18.6663C18.4215 28.5093 18.2055 28.5525 18.0183 28.6389C17.8359 28.7253 17.6823 28.8645 17.5719 29.0469C17.4567 29.2293 17.3799 29.3925 17.3319 29.5365C17.2887 29.6757 17.2311 29.8773 17.1591 30.1413C17.1255 30.2661 17.1063 30.3813 17.1063 30.4869C17.1063 30.7701 17.2071 30.9957 17.4087 31.1733C17.6103 31.3509 17.8599 31.4613 18.1623 31.5189C18.4599 31.5909 18.8679 31.6485 19.3767 31.7013C19.8855 31.7541 20.3367 31.7877 20.7207 31.8069C21.1095 31.8261 21.6039 31.8501 22.2135 31.8837C22.8183 31.9173 23.2119 31.9461 23.3895 31.9653H23.4711V31.9701Z" fill="white"/>
</svg>
