<svg width="77" height="30" viewBox="0 0 77 30" fill="none" xmlns="http://www.w3.org/2000/svg">
<path d="M28.3052 7.814C28.9712 7.778 29.3492 7.778 29.4212 7.778C29.6732 7.796 29.9072 7.85 30.1412 7.958C30.2852 8.048 30.3572 8.192 30.3932 8.39C30.4112 8.588 30.4292 8.786 30.4292 9.002C30.4292 9.146 30.4112 9.308 30.4112 9.452C30.3752 9.902 30.1052 10.244 29.6012 10.46C29.5472 10.478 29.2232 10.658 28.6472 10.982C29.3492 12.17 29.7272 12.8 29.7812 12.89C30.0152 13.304 30.0692 13.88 29.9612 14.618C29.9252 14.726 29.7992 14.852 29.5832 15.032C29.3492 15.212 29.1872 15.302 29.0792 15.302C28.9532 15.302 28.8092 15.248 28.6472 15.104C28.4852 14.96 28.3772 14.816 28.3232 14.654C28.2872 14.564 28.1972 14.42 28.0532 14.24C27.9092 14.06 27.8192 13.916 27.7832 13.826C27.7292 13.718 27.5672 13.592 27.2792 13.412C26.9912 13.25 26.7932 13.178 26.7212 13.214C26.6852 13.232 26.6132 13.268 26.4872 13.304C26.3432 13.358 26.2532 13.412 26.1812 13.448C26.1092 13.484 26.0012 13.556 25.8752 13.646C25.7312 13.754 25.6232 13.862 25.5152 13.97C25.0292 14.51 24.6692 14.924 24.4172 15.194C24.2372 15.374 23.9312 15.374 23.4812 15.158C23.0132 14.96 22.6352 14.726 22.3472 14.474C22.2032 14.366 22.1312 14.204 22.1312 13.97C22.1312 13.736 22.1672 13.502 22.2752 13.286C22.2752 13.286 22.4192 13.142 22.6712 12.836L23.0672 12.386C23.2832 12.206 23.5892 11.99 24.0032 11.72C24.3992 11.468 24.7232 11.234 24.9572 11.036C25.0112 10.964 25.0112 10.892 24.9572 10.82C24.8852 10.748 24.8132 10.694 24.7052 10.658C24.6332 10.64 24.4352 10.586 24.1292 10.478C23.8052 10.37 23.5712 10.298 23.4092 10.244C22.7432 10.028 22.4552 9.668 22.5632 9.2C22.5632 9.164 22.5812 9.056 22.6172 8.912C22.6532 8.768 22.6892 8.642 22.6892 8.552C22.6892 8.48 22.7252 8.408 22.7612 8.336C22.7972 8.282 22.8332 8.246 22.8692 8.21C22.9052 8.174 22.9772 8.156 23.0672 8.138L23.2472 8.12C23.2832 8.12 23.3732 8.102 23.4812 8.102H23.7152C23.7872 8.102 23.9132 8.102 24.0752 8.102C24.2192 8.12 24.3452 8.12 24.4532 8.12C24.5612 8.12 24.6512 8.084 24.7412 8.012C24.9212 7.904 25.0292 7.508 25.0832 6.842C25.0832 6.536 25.1912 6.32 25.3712 6.194C25.5512 6.068 25.7852 5.978 26.0732 5.942C26.7212 5.87 27.2252 5.906 27.5852 6.086C27.8372 6.23 27.9992 6.428 28.0712 6.698C28.0892 6.842 28.1252 7.058 28.1972 7.328C28.2512 7.616 28.2872 7.778 28.3052 7.814ZM36.8192 8.012C36.7472 8.372 36.6932 9.2 36.6572 10.496C36.6212 11.792 36.6212 12.638 36.6572 13.016C36.6932 13.484 36.6752 14.816 36.6032 17.03C36.5312 19.244 36.4592 20.558 36.3872 20.954C36.3152 21.332 36.1712 21.656 35.9732 21.908C35.6312 22.34 35.0192 22.538 34.1192 22.502C34.1012 22.502 34.0832 22.502 34.0832 22.502V22.484C34.0112 22.484 33.9392 22.466 33.8492 22.466C33.7412 22.466 33.6872 22.448 33.6512 22.448L33.5252 22.412C33.4532 22.412 33.4172 22.394 33.4172 22.376C33.3992 22.358 33.3812 22.34 33.3632 22.304C33.3272 22.286 33.3092 22.25 33.3092 22.196L33.2912 22.034C33.2912 21.98 33.2912 21.908 33.2912 21.8C33.2732 21.62 33.3272 20.306 33.4352 17.858C33.5432 15.41 33.5612 13.988 33.5072 13.556C33.4172 12.98 33.3452 11.936 33.2912 10.424C33.2192 8.93 33.2372 7.868 33.3272 7.256C33.3632 7.04 33.5072 6.842 33.7592 6.698C34.0112 6.554 34.3172 6.482 34.6412 6.482C34.7852 6.482 35.0192 6.464 35.3792 6.428C35.6132 6.392 35.8112 6.374 35.9912 6.374C36.1712 6.374 36.3152 6.446 36.4412 6.554C36.5492 6.68 36.6392 6.878 36.7112 7.13C36.7112 7.166 36.7472 7.454 36.8192 8.012ZM24.0392 15.86C25.7492 15.77 26.6852 15.716 26.8292 15.698C29.6012 15.662 31.3652 15.68 32.1392 15.77C32.2832 15.77 32.4092 15.77 32.5172 15.788C32.6252 15.806 32.6972 15.86 32.7692 15.932C32.8412 16.022 32.8952 16.094 32.9312 16.166C32.9672 16.238 32.9852 16.346 33.0032 16.508C33.0032 16.67 33.0212 16.796 33.0212 16.886V17.354V17.822C32.9672 18.002 32.6792 18.074 32.1572 18.074C31.6172 18.074 31.0412 18.056 30.3932 17.984C29.7452 17.93 29.3492 17.912 29.2052 17.93C29.1152 17.948 28.8452 18.02 28.3772 18.146C28.2692 18.182 28.1792 18.236 28.1072 18.308C28.0352 18.398 27.9632 18.524 27.9272 18.668C27.8912 18.812 27.8552 18.938 27.8372 19.028C27.8192 19.136 27.8012 19.262 27.8012 19.424C27.7832 19.46 27.7652 19.604 27.7472 19.82C27.7292 20.036 27.7112 20.252 27.6932 20.432C27.6572 20.612 27.6392 20.81 27.6032 20.99C27.5672 21.188 27.5492 21.314 27.5312 21.386C27.4232 21.638 27.2252 21.818 26.9372 21.926C26.6492 22.034 26.3432 22.052 26.0372 21.98C25.6052 21.872 25.3712 21.53 25.3352 20.936C25.3172 20.864 25.2992 20.504 25.2632 19.82C25.2272 19.136 25.2092 18.704 25.1912 18.506C25.1552 18.362 25.1192 18.254 25.0472 18.182C24.9752 18.11 24.8672 18.11 24.6872 18.146C24.4712 18.2 23.4272 18.236 21.5192 18.236C21.3392 18.236 21.1592 18.164 21.0152 18.02C20.8532 17.876 20.7812 17.714 20.7812 17.534C20.7812 17.498 20.7632 17.372 20.7632 17.192C20.7632 17.012 20.7632 16.886 20.7632 16.796C20.7632 16.724 20.7992 16.616 20.8532 16.49C20.8892 16.364 20.9612 16.256 21.0512 16.148C21.1952 16.022 21.6272 15.932 22.3652 15.878C23.0852 15.842 23.6432 15.824 24.0392 15.86ZM55.0712 19.802C55.0532 19.946 55.0532 20.144 55.0892 20.36C55.1252 20.594 55.1252 20.81 55.1252 21.008C55.1252 21.206 55.0712 21.386 54.9992 21.548C54.8552 21.818 54.7112 21.98 54.5312 22.016C54.3152 22.07 54.0632 22.124 53.7392 22.16C53.4152 22.214 53.1272 22.25 52.8932 22.268C52.6592 22.286 52.5512 22.286 52.5512 22.268H43.0472C42.7232 22.286 42.2372 22.304 41.5892 22.322C40.9412 22.34 40.4552 22.34 40.1312 22.34C39.7712 22.358 39.4292 22.286 39.1052 22.124L38.8712 20.738L39.1052 20.054C39.1772 19.838 39.3212 19.73 39.5372 19.712L40.9772 19.568C42.4172 19.568 43.9652 19.532 45.6032 19.496C45.4592 19.352 45.3872 19.19 45.3872 19.046C45.3512 18.83 45.3332 18.524 45.3332 18.128C45.3152 17.732 45.2972 17.444 45.2972 17.3C45.2972 17.156 45.3152 17.048 45.3692 16.976C45.4052 16.904 45.5132 16.868 45.6752 16.868C45.8552 16.886 46.1972 16.886 46.6652 16.886C47.1332 16.886 47.4572 16.868 47.6552 16.868C48.0332 16.886 48.2852 16.976 48.4292 17.156C48.5732 17.336 48.6812 17.678 48.7712 18.182C48.8252 18.56 48.7352 18.974 48.5012 19.442C50.4452 19.406 51.7232 19.37 52.2992 19.334C53.0012 19.316 53.5592 19.316 53.9552 19.352C54.0632 19.352 54.3872 19.46 54.9272 19.64C54.9452 19.658 54.9812 19.676 55.0172 19.712C55.0532 19.748 55.0712 19.784 55.0712 19.802ZM45.3152 8.354C46.7732 8.246 47.5832 8.192 47.7632 8.174C48.0692 8.174 48.4112 8.282 48.7712 8.48C48.8432 8.534 48.9152 8.624 48.9872 8.75C49.0412 8.876 49.0772 8.984 49.0772 9.074C49.0592 9.902 49.1672 10.64 49.3832 11.288C49.4732 11.612 49.6712 11.792 49.9592 11.864C50.7872 12.098 51.8492 12.404 53.1092 12.8C53.3252 12.872 53.4692 12.962 53.5592 13.07C53.6312 13.178 53.6312 13.34 53.5412 13.556C53.4692 13.7 53.4152 13.916 53.3792 14.204C53.3252 14.492 53.2892 14.654 53.2712 14.726C53.1632 15.158 52.9472 15.446 52.6592 15.626C52.3532 15.806 51.9572 15.932 51.4892 16.004C51.4172 16.022 51.1832 16.058 50.8232 16.13C50.4632 16.202 50.1752 16.238 49.9952 16.238C49.7072 16.238 49.4372 16.13 49.1492 15.878C48.8072 15.608 48.5012 15.284 48.2312 14.888C47.8172 14.312 47.3132 13.898 46.7012 13.628C46.4492 13.52 46.1792 13.52 45.8552 13.664C45.2432 13.952 44.4872 14.33 43.6232 14.798C43.5872 14.834 43.5332 14.852 43.4792 14.87C43.2272 15.014 43.0292 15.122 42.8852 15.194C42.7412 15.266 42.5432 15.338 42.3092 15.392C42.0572 15.464 41.8412 15.482 41.6252 15.446C41.3552 15.446 41.1752 15.392 41.0852 15.302C40.9772 15.23 40.9232 15.05 40.8872 14.798C40.8512 14.564 40.7972 14.33 40.7252 14.096C40.4372 13.214 40.7072 12.548 41.5532 12.116C43.6412 11.072 44.7212 10.532 44.8112 10.496C45.0272 10.388 45.1892 10.244 45.2612 10.064C45.3332 9.884 45.3872 9.668 45.4052 9.38C45.4052 9.344 45.3692 9.002 45.3152 8.354Z" fill="#818181"/>
<path d="M28.3052 9.814C28.9712 9.778 29.3492 9.778 29.4212 9.778C29.6732 9.796 29.9072 9.85 30.1412 9.958C30.2852 10.048 30.3572 10.192 30.3932 10.39C30.4112 10.588 30.4292 10.786 30.4292 11.002C30.4292 11.146 30.4112 11.308 30.4112 11.452C30.3752 11.902 30.1052 12.244 29.6012 12.46C29.5472 12.478 29.2232 12.658 28.6472 12.982C29.3492 14.17 29.7272 14.8 29.7812 14.89C30.0152 15.304 30.0692 15.88 29.9612 16.618C29.9252 16.726 29.7992 16.852 29.5832 17.032C29.3492 17.212 29.1872 17.302 29.0792 17.302C28.9532 17.302 28.8092 17.248 28.6472 17.104C28.4852 16.96 28.3772 16.816 28.3232 16.654C28.2872 16.564 28.1972 16.42 28.0532 16.24C27.9092 16.06 27.8192 15.916 27.7832 15.826C27.7292 15.718 27.5672 15.592 27.2792 15.412C26.9912 15.25 26.7932 15.178 26.7212 15.214C26.6852 15.232 26.6132 15.268 26.4872 15.304C26.3432 15.358 26.2532 15.412 26.1812 15.448C26.1092 15.484 26.0012 15.556 25.8752 15.646C25.7312 15.754 25.6232 15.862 25.5152 15.97C25.0292 16.51 24.6692 16.924 24.4172 17.194C24.2372 17.374 23.9312 17.374 23.4812 17.158C23.0132 16.96 22.6352 16.726 22.3472 16.474C22.2032 16.366 22.1312 16.204 22.1312 15.97C22.1312 15.736 22.1672 15.502 22.2752 15.286C22.2752 15.286 22.4192 15.142 22.6712 14.836L23.0672 14.386C23.2832 14.206 23.5892 13.99 24.0032 13.72C24.3992 13.468 24.7232 13.234 24.9572 13.036C25.0112 12.964 25.0112 12.892 24.9572 12.82C24.8852 12.748 24.8132 12.694 24.7052 12.658C24.6332 12.64 24.4352 12.586 24.1292 12.478C23.8052 12.37 23.5712 12.298 23.4092 12.244C22.7432 12.028 22.4552 11.668 22.5632 11.2C22.5632 11.164 22.5812 11.056 22.6172 10.912C22.6532 10.768 22.6892 10.642 22.6892 10.552C22.6892 10.48 22.7252 10.408 22.7612 10.336C22.7972 10.282 22.8332 10.246 22.8692 10.21C22.9052 10.174 22.9772 10.156 23.0672 10.138L23.2472 10.12C23.2832 10.12 23.3732 10.102 23.4812 10.102H23.7152C23.7872 10.102 23.9132 10.102 24.0752 10.102C24.2192 10.12 24.3452 10.12 24.4532 10.12C24.5612 10.12 24.6512 10.084 24.7412 10.012C24.9212 9.904 25.0292 9.508 25.0832 8.842C25.0832 8.536 25.1912 8.32 25.3712 8.194C25.5512 8.068 25.7852 7.978 26.0732 7.942C26.7212 7.87 27.2252 7.906 27.5852 8.086C27.8372 8.23 27.9992 8.428 28.0712 8.698C28.0892 8.842 28.1252 9.058 28.1972 9.328C28.2512 9.616 28.2872 9.778 28.3052 9.814ZM36.8192 10.012C36.7472 10.372 36.6932 11.2 36.6572 12.496C36.6212 13.792 36.6212 14.638 36.6572 15.016C36.6932 15.484 36.6752 16.816 36.6032 19.03C36.5312 21.244 36.4592 22.558 36.3872 22.954C36.3152 23.332 36.1712 23.656 35.9732 23.908C35.6312 24.34 35.0192 24.538 34.1192 24.502C34.1012 24.502 34.0832 24.502 34.0832 24.502V24.484C34.0112 24.484 33.9392 24.466 33.8492 24.466C33.7412 24.466 33.6872 24.448 33.6512 24.448L33.5252 24.412C33.4532 24.412 33.4172 24.394 33.4172 24.376C33.3992 24.358 33.3812 24.34 33.3632 24.304C33.3272 24.286 33.3092 24.25 33.3092 24.196L33.2912 24.034C33.2912 23.98 33.2912 23.908 33.2912 23.8C33.2732 23.62 33.3272 22.306 33.4352 19.858C33.5432 17.41 33.5612 15.988 33.5072 15.556C33.4172 14.98 33.3452 13.936 33.2912 12.424C33.2192 10.93 33.2372 9.868 33.3272 9.256C33.3632 9.04 33.5072 8.842 33.7592 8.698C34.0112 8.554 34.3172 8.482 34.6412 8.482C34.7852 8.482 35.0192 8.464 35.3792 8.428C35.6132 8.392 35.8112 8.374 35.9912 8.374C36.1712 8.374 36.3152 8.446 36.4412 8.554C36.5492 8.68 36.6392 8.878 36.7112 9.13C36.7112 9.166 36.7472 9.454 36.8192 10.012ZM24.0392 17.86C25.7492 17.77 26.6852 17.716 26.8292 17.698C29.6012 17.662 31.3652 17.68 32.1392 17.77C32.2832 17.77 32.4092 17.77 32.5172 17.788C32.6252 17.806 32.6972 17.86 32.7692 17.932C32.8412 18.022 32.8952 18.094 32.9312 18.166C32.9672 18.238 32.9852 18.346 33.0032 18.508C33.0032 18.67 33.0212 18.796 33.0212 18.886V19.354V19.822C32.9672 20.002 32.6792 20.074 32.1572 20.074C31.6172 20.074 31.0412 20.056 30.3932 19.984C29.7452 19.93 29.3492 19.912 29.2052 19.93C29.1152 19.948 28.8452 20.02 28.3772 20.146C28.2692 20.182 28.1792 20.236 28.1072 20.308C28.0352 20.398 27.9632 20.524 27.9272 20.668C27.8912 20.812 27.8552 20.938 27.8372 21.028C27.8192 21.136 27.8012 21.262 27.8012 21.424C27.7832 21.46 27.7652 21.604 27.7472 21.82C27.7292 22.036 27.7112 22.252 27.6932 22.432C27.6572 22.612 27.6392 22.81 27.6032 22.99C27.5672 23.188 27.5492 23.314 27.5312 23.386C27.4232 23.638 27.2252 23.818 26.9372 23.926C26.6492 24.034 26.3432 24.052 26.0372 23.98C25.6052 23.872 25.3712 23.53 25.3352 22.936C25.3172 22.864 25.2992 22.504 25.2632 21.82C25.2272 21.136 25.2092 20.704 25.1912 20.506C25.1552 20.362 25.1192 20.254 25.0472 20.182C24.9752 20.11 24.8672 20.11 24.6872 20.146C24.4712 20.2 23.4272 20.236 21.5192 20.236C21.3392 20.236 21.1592 20.164 21.0152 20.02C20.8532 19.876 20.7812 19.714 20.7812 19.534C20.7812 19.498 20.7632 19.372 20.7632 19.192C20.7632 19.012 20.7632 18.886 20.7632 18.796C20.7632 18.724 20.7992 18.616 20.8532 18.49C20.8892 18.364 20.9612 18.256 21.0512 18.148C21.1952 18.022 21.6272 17.932 22.3652 17.878C23.0852 17.842 23.6432 17.824 24.0392 17.86ZM55.0712 21.802C55.0532 21.946 55.0532 22.144 55.0892 22.36C55.1252 22.594 55.1252 22.81 55.1252 23.008C55.1252 23.206 55.0712 23.386 54.9992 23.548C54.8552 23.818 54.7112 23.98 54.5312 24.016C54.3152 24.07 54.0632 24.124 53.7392 24.16C53.4152 24.214 53.1272 24.25 52.8932 24.268C52.6592 24.286 52.5512 24.286 52.5512 24.268H43.0472C42.7232 24.286 42.2372 24.304 41.5892 24.322C40.9412 24.34 40.4552 24.34 40.1312 24.34C39.7712 24.358 39.4292 24.286 39.1052 24.124L38.8712 22.738L39.1052 22.054C39.1772 21.838 39.3212 21.73 39.5372 21.712L40.9772 21.568C42.4172 21.568 43.9652 21.532 45.6032 21.496C45.4592 21.352 45.3872 21.19 45.3872 21.046C45.3512 20.83 45.3332 20.524 45.3332 20.128C45.3152 19.732 45.2972 19.444 45.2972 19.3C45.2972 19.156 45.3152 19.048 45.3692 18.976C45.4052 18.904 45.5132 18.868 45.6752 18.868C45.8552 18.886 46.1972 18.886 46.6652 18.886C47.1332 18.886 47.4572 18.868 47.6552 18.868C48.0332 18.886 48.2852 18.976 48.4292 19.156C48.5732 19.336 48.6812 19.678 48.7712 20.182C48.8252 20.56 48.7352 20.974 48.5012 21.442C50.4452 21.406 51.7232 21.37 52.2992 21.334C53.0012 21.316 53.5592 21.316 53.9552 21.352C54.0632 21.352 54.3872 21.46 54.9272 21.64C54.9452 21.658 54.9812 21.676 55.0172 21.712C55.0532 21.748 55.0712 21.784 55.0712 21.802ZM45.3152 10.354C46.7732 10.246 47.5832 10.192 47.7632 10.174C48.0692 10.174 48.4112 10.282 48.7712 10.48C48.8432 10.534 48.9152 10.624 48.9872 10.75C49.0412 10.876 49.0772 10.984 49.0772 11.074C49.0592 11.902 49.1672 12.64 49.3832 13.288C49.4732 13.612 49.6712 13.792 49.9592 13.864C50.7872 14.098 51.8492 14.404 53.1092 14.8C53.3252 14.872 53.4692 14.962 53.5592 15.07C53.6312 15.178 53.6312 15.34 53.5412 15.556C53.4692 15.7 53.4152 15.916 53.3792 16.204C53.3252 16.492 53.2892 16.654 53.2712 16.726C53.1632 17.158 52.9472 17.446 52.6592 17.626C52.3532 17.806 51.9572 17.932 51.4892 18.004C51.4172 18.022 51.1832 18.058 50.8232 18.13C50.4632 18.202 50.1752 18.238 49.9952 18.238C49.7072 18.238 49.4372 18.13 49.1492 17.878C48.8072 17.608 48.5012 17.284 48.2312 16.888C47.8172 16.312 47.3132 15.898 46.7012 15.628C46.4492 15.52 46.1792 15.52 45.8552 15.664C45.2432 15.952 44.4872 16.33 43.6232 16.798C43.5872 16.834 43.5332 16.852 43.4792 16.87C43.2272 17.014 43.0292 17.122 42.8852 17.194C42.7412 17.266 42.5432 17.338 42.3092 17.392C42.0572 17.464 41.8412 17.482 41.6252 17.446C41.3552 17.446 41.1752 17.392 41.0852 17.302C40.9772 17.23 40.9232 17.05 40.8872 16.798C40.8512 16.564 40.7972 16.33 40.7252 16.096C40.4372 15.214 40.7072 14.548 41.5532 14.116C43.6412 13.072 44.7212 12.532 44.8112 12.496C45.0272 12.388 45.1892 12.244 45.2612 12.064C45.3332 11.884 45.3872 11.668 45.4052 11.38C45.4052 11.344 45.3692 11.002 45.3152 10.354Z" fill="white"/>
</svg>
