<svg width="81" height="30" viewBox="0 0 81 30" fill="none" xmlns="http://www.w3.org/2000/svg">
<path d="M11.6944 18.848C11.6584 19.028 11.6044 19.496 11.5324 20.234C11.4604 20.972 11.4244 21.404 11.4064 21.512C11.3524 21.782 11.1904 21.944 10.9384 21.98C10.6684 22.034 10.0564 22.07 9.0844 22.088C8.9404 22.088 8.8504 22.052 8.7784 21.98C8.7064 21.908 8.6524 21.8 8.6524 21.656C8.6344 21.35 8.6344 21.062 8.6524 20.792C8.6524 20.54 8.6524 20.306 8.6524 20.09C8.6344 19.874 8.6164 19.694 8.5804 19.532C8.5444 19.388 8.4904 19.262 8.4004 19.154C8.2924 19.064 8.1664 19.01 8.0044 18.974C7.7884 18.938 6.9064 18.902 5.3584 18.848C3.8104 18.812 2.8744 18.776 2.5504 18.776C2.3344 18.776 2.1724 18.65 2.0644 18.38C1.8304 17.876 1.8124 17.264 2.0104 16.526C2.0284 16.4 2.1904 16.31 2.4964 16.238C2.5324 16.22 2.8924 16.22 3.5764 16.22C4.2604 16.22 4.6204 16.22 4.6564 16.22C5.0344 16.202 6.1504 16.166 7.9864 16.13C9.8224 16.094 10.8844 16.058 11.2084 16.04C11.5684 16.04 12.5764 16.022 14.2144 16.004C15.8524 16.004 16.7704 15.986 16.9684 15.986C17.2204 15.986 17.4364 16.148 17.5984 16.508C17.8504 17.048 17.9044 17.57 17.7604 18.074C17.7064 18.254 17.5624 18.398 17.3284 18.488C17.0584 18.596 16.1224 18.686 14.5204 18.722C12.9004 18.758 12.0724 18.794 12.0004 18.794L11.6944 18.848ZM8.0584 7.436C9.5164 7.346 10.3264 7.292 10.5064 7.274C10.8124 7.274 11.1544 7.382 11.5144 7.562C11.5864 7.598 11.6584 7.688 11.7304 7.796C11.7844 7.904 11.8204 8.012 11.8204 8.084C11.8024 8.84 11.9104 9.488 12.1264 10.064C12.2164 10.352 12.4144 10.532 12.7024 10.604C13.5304 10.802 14.5924 11.072 15.8524 11.432C16.0684 11.504 16.2124 11.576 16.3024 11.666C16.3744 11.774 16.3744 11.918 16.2844 12.116C16.2124 12.26 16.1584 12.44 16.1224 12.692C16.0684 12.944 16.0324 13.106 16.0144 13.178C15.9064 13.556 15.6904 13.826 15.4024 13.988C15.0964 14.15 14.7004 14.258 14.2324 14.312C14.1604 14.33 13.9264 14.366 13.5664 14.438C13.2064 14.51 12.9184 14.528 12.7384 14.528C12.4504 14.528 12.1804 14.438 11.8924 14.222C11.5504 13.97 11.2444 13.664 10.9744 13.304C10.5604 12.8 10.0564 12.44 9.4444 12.188C9.1924 12.08 8.9224 12.098 8.5984 12.224C7.9864 12.476 7.2304 12.818 6.3664 13.25C6.3304 13.268 6.2764 13.286 6.2224 13.304C5.9704 13.448 5.7724 13.538 5.6284 13.592C5.4844 13.664 5.2864 13.718 5.0524 13.772C4.8004 13.826 4.5844 13.844 4.3684 13.826C4.0984 13.808 3.9184 13.754 3.8284 13.682C3.7204 13.61 3.6664 13.466 3.6304 13.232C3.5944 13.016 3.5404 12.818 3.4684 12.602C3.1804 11.81 3.4504 11.216 4.2964 10.838C6.3844 9.902 7.4644 9.398 7.5544 9.362C7.7704 9.272 7.9324 9.146 8.0044 8.984C8.0764 8.822 8.1304 8.624 8.1484 8.372C8.1484 8.336 8.1124 8.03 8.0584 7.436ZM35.7784 12.782C35.7604 13.538 35.5804 14.06 35.2384 14.348C35.0944 14.456 34.9144 14.546 34.6984 14.582C34.4824 14.618 34.2844 14.636 34.1224 14.618H33.8884L33.4924 14.51C33.2404 14.456 33.1324 14.294 33.1324 14.042C33.1324 12.026 33.1324 10.64 33.0964 9.92C33.0424 9.128 33.0244 8.156 33.0244 7.004C33.0244 6.77 33.0964 6.572 33.2764 6.41C33.4384 6.266 33.6544 6.176 33.9064 6.176L35.1844 6.302L35.3644 6.446C35.4364 6.5 35.5264 6.608 35.6704 6.77C35.7964 6.932 35.8684 7.094 35.8684 7.238V9.02C35.8504 9.02 35.8324 9.236 35.8324 9.65C35.8324 10.082 35.8144 10.64 35.8144 11.324C35.7964 12.008 35.7784 12.494 35.7784 12.782ZM31.8184 9.182C32.1604 9.254 32.3944 9.344 32.5204 9.452C32.6464 9.56 32.7184 9.776 32.7544 10.064C32.7544 10.208 32.7724 10.424 32.7724 10.712V11.198C32.7724 11.504 32.5744 11.72 32.1604 11.864C31.8724 11.972 31.5304 12.044 31.1344 12.098C30.6664 12.17 30.3964 12.008 30.3244 11.612C30.1444 10.856 30.2524 10.1 30.6844 9.344C30.7204 9.308 30.7744 9.272 30.8464 9.236C30.9184 9.218 31.0444 9.2 31.2064 9.182C31.3504 9.164 31.4584 9.146 31.4944 9.128C31.4944 9.128 31.6024 9.146 31.8184 9.182ZM24.8884 8.786C24.2404 8.642 23.4304 8.66 22.4584 8.84C21.4864 9.02 20.8024 9.11 20.4424 9.092C20.5684 8.012 20.6584 7.238 20.7304 6.77C21.6844 6.644 22.1884 6.572 22.2604 6.572C23.8804 6.482 24.9244 6.446 25.4284 6.464C25.6804 6.482 25.9324 6.518 26.1844 6.554C26.4364 6.608 26.7604 6.68 27.1564 6.77C27.5344 6.878 27.7864 6.932 27.9304 6.95C28.3624 7.058 28.5244 7.364 28.3804 7.85C28.2364 8.336 28.1284 8.678 28.0564 8.894C27.9844 9.11 27.8404 9.38 27.6604 9.74C27.4804 10.1 27.2644 10.388 27.0124 10.622C26.9404 10.694 26.8504 10.784 26.7424 10.892C26.6164 11 26.5264 11.09 26.4904 11.126C26.4544 11.162 26.4004 11.216 26.3644 11.288C26.3284 11.36 26.3104 11.432 26.3284 11.468C26.3464 11.522 26.3824 11.576 26.4544 11.648C26.5084 11.72 26.5984 11.792 26.7244 11.864C26.7964 11.918 26.9044 12.026 27.0844 12.17C27.2464 12.314 27.3544 12.422 27.3904 12.476C27.5524 12.71 27.7684 12.944 28.0204 13.196C28.2724 13.448 28.4704 13.682 28.6324 13.916C28.9204 14.348 28.8664 14.672 28.4344 14.888C28.2904 14.978 28.0924 15.104 27.8404 15.284C27.5884 15.464 27.4084 15.572 27.3184 15.626C27.2284 15.698 27.1564 15.734 27.0844 15.752C27.0124 15.77 26.9224 15.77 26.8324 15.734C26.7424 15.698 26.6884 15.68 26.6524 15.662C26.6164 15.662 26.5444 15.608 26.4184 15.518C26.2924 15.446 26.2204 15.392 26.2024 15.374C26.1124 15.338 26.0584 15.302 26.0404 15.266C26.0044 15.23 25.9864 15.212 25.9864 15.194C25.9864 15.176 25.9504 15.122 25.8964 15.05C25.8244 14.978 25.7344 14.87 25.6084 14.744C25.5544 14.708 25.4644 14.6 25.3204 14.402C25.1764 14.222 25.0324 14.06 24.9244 13.952C24.5644 13.592 24.1684 13.43 23.7364 13.43C23.3044 13.43 22.7824 13.646 22.1344 14.078C21.7744 14.312 21.3964 14.618 21.0004 14.996C20.6404 15.32 20.4244 15.248 20.3164 14.798C20.0824 13.862 19.9564 13.286 19.9204 13.052C19.8484 12.656 19.9024 12.296 20.0824 11.99C20.2624 11.702 20.5684 11.486 20.9824 11.342C21.5944 11.162 22.1704 10.91 22.6924 10.55C23.1964 10.19 23.7904 9.722 24.4744 9.128C24.4744 9.128 24.6184 9.02 24.8884 8.786ZM29.9644 20.63C30.2524 20.63 30.5044 20.522 30.7204 20.27C30.9364 20.036 31.0444 19.748 31.0444 19.388C31.0444 18.884 30.7564 18.578 30.2164 18.452C29.6224 18.344 28.4524 18.272 26.7064 18.272H26.6884C26.5084 18.272 26.3644 18.308 26.2384 18.362C26.1124 18.434 26.0044 18.524 25.9324 18.65C25.8604 18.776 25.8064 18.884 25.7704 18.974C25.7344 19.082 25.6984 19.208 25.6624 19.388C25.6264 19.478 25.6264 19.55 25.6264 19.622C25.6264 19.82 25.6804 19.982 25.8244 20.09C25.9684 20.216 26.1304 20.288 26.3464 20.324C26.5444 20.378 26.8144 20.414 27.1744 20.45C27.5164 20.486 27.8224 20.522 28.0924 20.522C28.3444 20.54 28.6864 20.558 29.1004 20.576C29.5144 20.612 29.7844 20.63 29.9104 20.63H29.9644ZM27.3184 16.436C28.0024 16.436 28.8304 16.508 29.7664 16.616C30.7024 16.724 31.4944 16.868 32.1424 17.048C33.2404 17.372 33.8524 17.948 33.9784 18.776C34.0144 18.992 34.0324 19.19 34.0324 19.37C34.0324 20.18 33.7084 20.828 33.0784 21.296C32.6464 21.62 32.2864 21.89 31.9984 22.07C31.7104 22.25 31.3684 22.43 30.9364 22.592C30.5044 22.772 30.0724 22.862 29.6404 22.862C29.4604 22.862 29.0284 22.898 28.3264 22.934C27.6244 22.97 27.1564 22.988 26.9224 22.988C26.5804 22.988 26.2744 22.97 26.0224 22.916C25.9504 22.916 25.8784 22.916 25.7704 22.88C25.2664 22.808 24.8704 22.736 24.6184 22.682C24.3484 22.628 24.0244 22.52 23.6464 22.34C23.2684 22.178 22.9444 21.962 22.6924 21.692C22.2064 21.224 21.9724 20.792 21.9724 20.378C21.9724 19.55 22.0804 18.92 22.3324 18.506C22.9984 17.39 24.3844 16.706 26.4724 16.49C26.7424 16.454 27.0304 16.436 27.3184 16.436ZM59.3474 7.184C59.3834 7.436 59.4194 7.994 59.4374 8.894C59.4374 9.794 59.4374 10.352 59.4014 10.568C59.4014 10.64 59.4194 10.748 59.4554 10.892C59.4914 11.036 59.5274 11.108 59.5274 11.108C59.5454 11.198 59.7254 11.306 60.0494 11.432C60.1214 11.486 60.2654 11.522 60.4454 11.558C60.6254 11.594 60.7514 11.63 60.8234 11.648C61.0214 11.72 61.1474 11.81 61.2014 11.918C61.2374 12.026 61.2374 12.188 61.2014 12.386C61.0394 13.016 60.6614 13.394 60.0674 13.538C59.9594 13.574 59.8514 13.574 59.7614 13.556C59.6534 13.538 59.5994 13.52 59.5814 13.484C59.5454 13.466 59.5274 13.466 59.4914 13.484C59.4554 13.52 59.4734 13.592 59.5274 13.718C59.5634 13.934 59.5814 14.474 59.5634 15.302C59.5274 16.148 59.4554 16.67 59.3474 16.868C59.1854 17.138 59.0594 17.3 58.9514 17.354C58.3934 17.66 57.8534 17.696 57.3494 17.462C57.2054 17.408 57.1154 17.282 57.0974 17.102C57.0614 16.922 57.0794 16.76 57.1154 16.598C57.1154 16.382 57.1154 15.806 57.0974 14.888C57.0794 13.97 57.0794 13.466 57.0794 13.376C57.0974 10.172 57.1514 8.138 57.2414 7.238C57.2774 6.878 57.4754 6.68 57.8534 6.662C58.0694 6.662 58.3034 6.644 58.5374 6.608C58.8614 6.572 59.0594 6.572 59.1314 6.608C59.2034 6.662 59.2394 6.77 59.2754 6.914C59.2934 7.058 59.3114 7.148 59.3474 7.184ZM55.7474 15.05C55.8014 15.518 55.8014 15.824 55.7294 15.95C55.6574 16.094 55.4954 16.148 55.2434 16.148C54.3254 16.256 52.2914 16.292 49.1234 16.22C48.7814 16.22 47.6654 16.238 45.7754 16.274C45.3974 16.292 45.1274 16.184 44.9474 15.932C44.7674 15.698 44.7314 15.374 44.8034 14.978L44.8394 14.69C44.8394 14.618 44.8394 14.564 44.8574 14.528C44.8754 14.51 44.9474 14.474 45.0554 14.402C45.0914 14.366 45.1454 14.348 45.1814 14.33L48.6374 13.916C48.8534 13.268 49.0874 12.818 49.3394 12.584C49.3574 12.584 49.3754 12.566 49.4114 12.566C48.4394 12.422 47.4314 12.152 46.3514 11.756C45.3434 11.396 44.8214 10.82 44.7854 10.046C44.7134 9.038 45.0374 8.282 45.7934 7.796C46.2074 7.526 46.5494 7.31 46.8194 7.166C47.0894 7.022 47.4314 6.878 47.8454 6.752C48.2594 6.644 48.6734 6.59 49.0694 6.59C49.2314 6.608 49.5014 6.608 49.8794 6.608C50.2574 6.608 50.5994 6.626 50.8874 6.644C51.1754 6.662 51.4454 6.698 51.6974 6.752C51.7334 6.77 51.8414 6.806 52.0394 6.842C52.2374 6.896 52.3634 6.932 52.4174 6.932C52.4534 6.95 52.5794 6.986 52.7594 7.022C52.9394 7.076 53.0474 7.112 53.1194 7.148C53.1914 7.184 53.2994 7.22 53.4434 7.274C53.5874 7.346 53.7134 7.4 53.8034 7.436C53.8754 7.49 53.9834 7.544 54.0914 7.616C54.1994 7.688 54.3074 7.778 54.3974 7.85C54.4874 7.94 54.5774 8.03 54.6674 8.12C55.0274 8.552 55.2074 8.912 55.2254 9.236C55.2434 9.56 55.0634 9.974 54.7034 10.514C54.1274 11.306 53.5694 11.864 53.0294 12.188C52.4714 12.512 51.7694 12.656 50.9414 12.656H50.8874C50.9414 12.746 50.9954 12.908 51.0674 13.16C51.1214 13.412 51.1754 13.556 51.2294 13.628C51.3014 13.772 51.6074 13.862 52.1114 13.916C52.6154 13.97 53.1554 14.006 53.7314 14.024C54.2894 14.042 54.6314 14.06 54.7394 14.078C54.9914 14.168 55.1174 14.204 55.1534 14.204C55.4054 14.312 55.5674 14.402 55.6394 14.51C55.7114 14.618 55.7474 14.798 55.7474 15.05ZM50.3294 11H50.5094H50.6894C50.9954 11 51.2294 10.928 51.3914 10.784C51.5354 10.64 51.6794 10.388 51.7874 10.028C51.9134 9.56 51.6974 9.254 51.1574 9.11C50.4374 8.93 49.5914 8.768 48.6554 8.642C48.3674 8.606 48.1334 8.696 47.9174 8.876C47.7014 9.056 47.5754 9.308 47.5394 9.596C47.4674 10.136 47.7194 10.478 48.2954 10.622C48.4934 10.694 48.7634 10.748 49.1054 10.82C49.4294 10.892 49.7174 10.928 49.9694 10.964C50.2034 11 50.3294 11.018 50.3294 11ZM52.2374 19.532H54.0914H56.0714C57.7634 19.532 58.8794 19.55 59.4014 19.55C59.4374 19.55 59.4914 19.568 59.5274 19.568C59.5634 19.586 59.5814 19.604 59.6174 19.604C59.6354 19.622 59.6534 19.64 59.6894 19.676L59.7434 19.766C59.7434 19.784 59.7614 19.82 59.7794 19.856C59.7794 19.91 59.7974 19.946 59.7974 19.964C59.7974 19.982 59.8154 20.018 59.8334 20.072C59.8334 20.126 59.8514 20.162 59.8514 20.162C59.8694 20.288 59.8874 20.414 59.8874 20.54C59.8874 21.08 59.7614 21.548 59.5454 21.98C59.4734 22.106 59.3294 22.196 59.0774 22.232C58.8254 22.268 57.9254 22.304 56.3774 22.304C54.8294 22.322 53.9114 22.34 53.6234 22.376C53.5514 22.394 53.4794 22.394 53.4254 22.394C53.1194 22.394 52.4714 22.412 51.4814 22.43C50.4914 22.448 49.7714 22.466 49.3214 22.484C49.2134 22.484 49.0154 22.502 48.7634 22.52C48.5114 22.538 48.3134 22.538 48.1874 22.538C47.7734 22.538 47.4314 22.466 47.1614 22.304C47.0894 22.268 47.0174 22.178 46.9454 22.07C46.8734 21.962 46.8374 21.872 46.8374 21.764C46.8014 21.224 46.7474 20.36 46.6934 19.136C46.6214 17.93 46.5854 17.174 46.5854 16.886H46.6034C46.8374 16.886 47.0714 16.886 47.2874 16.868C47.3054 16.868 47.3954 16.868 47.5394 16.832C47.6834 16.814 47.7734 16.796 47.8454 16.796C48.0614 16.796 48.3854 16.868 48.8174 17.012C48.9614 17.066 49.0334 17.156 49.0334 17.282C49.0334 17.336 49.0154 17.408 49.0154 17.498C49.0154 17.606 49.0154 17.678 49.0154 17.732V18.11V18.47V19.01V19.532H52.2374ZM67.0334 19.838C67.0334 19.694 67.0694 19.514 67.1414 19.262C67.2134 19.01 67.2494 18.812 67.2674 18.668C67.2854 18.074 67.3034 17.678 67.3394 17.48C67.3394 17.336 67.4114 17.21 67.5194 17.12C67.6274 17.048 67.7534 17.012 67.9154 17.012C68.2574 17.03 68.6534 17.066 69.1034 17.102C69.2474 17.138 69.3374 17.228 69.3374 17.39C69.3194 17.966 69.3194 18.38 69.3374 18.632C69.3374 18.812 69.3914 19.136 69.4634 19.568C69.4634 19.64 69.4994 19.694 69.5714 19.712C69.6254 19.748 69.7334 19.784 69.8954 19.856C70.0574 19.928 70.2014 19.964 70.3094 20C70.4174 20.036 70.5434 20.054 70.6514 20.054C70.9034 20.09 71.3174 20.054 71.8934 19.946C71.9294 19.946 71.9654 19.892 72.0014 19.82C72.0374 19.748 72.0734 19.658 72.0914 19.586C72.0914 19.442 72.1094 19.172 72.1454 18.812C72.1814 18.452 72.2174 18.182 72.2534 17.984C72.2894 17.732 72.3794 17.498 72.5414 17.282C72.5774 17.246 72.7934 17.174 73.2254 17.084C73.7294 16.976 74.0354 17.192 74.1434 17.714C74.2154 18.038 74.2334 18.452 74.1974 18.956C74.1794 19.136 74.6474 19.316 75.6194 19.46C76.5734 19.622 77.2574 19.712 77.6714 19.712H78.4454C78.5894 19.73 78.6794 19.784 78.7154 19.892C78.9314 20.45 79.0394 20.828 79.0754 21.008C79.1114 21.296 79.0394 21.512 78.8954 21.692C78.7514 21.872 78.5174 21.98 78.1934 22.016C78.0854 22.034 77.7074 22.034 77.0954 22.034C76.4654 22.034 75.8174 22.034 75.1514 22.034C74.4674 22.034 74.1074 22.016 74.0354 22.016C73.7834 22.034 73.1354 22.052 72.1094 22.052C71.0834 22.052 70.2914 22.07 69.7514 22.07C69.5894 22.088 69.3374 22.106 69.0134 22.142C68.6894 22.178 68.4374 22.196 68.2934 22.196C67.7894 22.196 66.1874 22.124 63.4874 21.962H63.4154C63.3794 21.962 63.3434 21.944 63.3254 21.944C63.0914 21.98 62.9474 21.962 62.8754 21.908C62.8034 21.854 62.7674 21.71 62.7674 21.494C62.7494 21.17 62.7494 20.756 62.7674 20.252C62.7674 20.108 62.8574 20 63.0014 19.892C63.1454 19.802 63.3254 19.748 63.5414 19.748C63.6494 19.748 64.2254 19.766 65.3054 19.802C66.3674 19.838 66.9434 19.838 67.0334 19.838ZM68.4374 13.61C68.3654 14.024 68.3834 14.276 68.4734 14.366C68.5634 14.456 68.8154 14.456 69.2114 14.384C69.5894 14.312 70.2194 14.258 71.1194 14.222C71.5334 14.222 72.1274 14.204 72.8834 14.168C73.6394 14.15 74.1974 14.132 74.5214 14.114C74.5214 14.114 75.0254 14.078 76.0334 14.006C76.2314 14.006 76.3754 14.042 76.4654 14.132C76.5554 14.222 76.5914 14.366 76.5914 14.582C76.5914 14.87 76.5734 15.104 76.5554 15.284C76.5194 15.464 76.4834 15.662 76.4114 15.878C76.3394 16.094 76.2134 16.274 76.0694 16.418C75.9074 16.562 75.7094 16.67 75.4574 16.742C75.3134 16.778 75.1514 16.814 74.9714 16.814C74.7914 16.814 74.5934 16.814 74.3414 16.778C74.0894 16.76 73.9094 16.742 73.8374 16.742C73.3154 16.724 72.6494 16.688 71.8574 16.634C70.2014 16.544 68.5634 16.436 66.9254 16.31C66.8534 16.31 66.7814 16.292 66.6734 16.238C66.2774 16.076 65.8994 15.698 65.5394 15.104C65.1614 14.528 64.9994 14.042 65.0354 13.646C65.0894 13.07 65.2154 12.512 65.4134 12.008C65.5214 11.684 65.6654 11.486 65.8454 11.414C66.0074 11.342 66.2774 11.324 66.6374 11.396C66.7274 11.414 66.8174 11.432 66.9254 11.432C67.0334 11.432 67.1414 11.432 67.2854 11.414C67.4294 11.414 67.5374 11.396 67.6094 11.396C67.6274 11.396 67.7894 11.396 68.1134 11.396C68.4194 11.396 68.5814 11.396 68.6174 11.396C68.6894 11.396 68.9774 11.414 69.4814 11.45C69.9854 11.486 70.3814 11.486 70.6514 11.468C71.4794 11.45 72.2174 11.378 72.8654 11.252C73.0274 11.216 73.1354 11.144 73.2074 11.036C73.2614 10.928 73.2974 10.766 73.3154 10.568C73.3154 10.388 73.3514 10.244 73.3874 10.172C73.3874 10.172 73.3514 10.136 73.3154 10.1C73.2614 10.064 73.2074 10.028 73.1354 9.992C73.0634 9.956 72.9914 9.92 72.9554 9.902C72.7034 9.848 72.4334 9.812 72.1454 9.812C71.8214 9.812 71.2634 9.812 70.4714 9.812C69.6794 9.812 69.1394 9.812 68.8334 9.794C68.6534 9.794 68.3474 9.794 67.9154 9.758C67.4654 9.722 67.1234 9.704 66.9074 9.704C66.3674 9.74 65.7914 9.812 65.1614 9.956C65.0174 9.992 64.8914 9.992 64.8194 9.956C64.7474 9.92 64.7114 9.83 64.7114 9.686C64.7294 8.48 64.7654 7.688 64.8194 7.292C64.8554 6.95 64.9814 6.698 65.1614 6.554C65.3414 6.41 65.6114 6.338 65.9714 6.338C67.7354 6.302 69.2114 6.428 70.4174 6.734C70.5254 6.77 70.6694 6.788 70.8134 6.806C70.9574 6.824 71.1014 6.842 71.2094 6.842C71.3174 6.842 71.4614 6.842 71.6414 6.842C71.8214 6.842 71.9474 6.86 72.0374 6.86C72.1634 6.86 72.5054 6.878 73.0454 6.896C73.5854 6.914 73.9814 6.932 74.2334 6.95C74.4674 6.968 74.7914 7.004 75.2054 7.058C75.6014 7.112 75.9794 7.184 76.3034 7.292C76.5914 7.4 76.8254 7.562 76.9874 7.796C77.3654 8.426 77.4734 9.29 77.3114 10.406C77.2754 10.64 77.1854 10.982 77.0774 11.432C76.9514 11.882 76.8794 12.224 76.8434 12.458C76.7714 12.854 76.6094 13.142 76.3574 13.322C76.1054 13.502 75.7634 13.61 75.3674 13.664C74.4314 13.808 73.4954 13.88 72.5594 13.88H72.2534C71.8934 13.88 71.5154 13.862 71.1194 13.826C70.7234 13.79 70.2554 13.754 69.7514 13.7C69.2474 13.664 68.8694 13.628 68.6354 13.592C68.6174 13.592 68.5454 13.61 68.4374 13.61Z" fill="#578246"/>
<path d="M11.6944 20.848C11.6584 21.028 11.6044 21.496 11.5324 22.234C11.4604 22.972 11.4244 23.404 11.4064 23.512C11.3524 23.782 11.1904 23.944 10.9384 23.98C10.6684 24.034 10.0564 24.07 9.0844 24.088C8.9404 24.088 8.8504 24.052 8.7784 23.98C8.7064 23.908 8.6524 23.8 8.6524 23.656C8.6344 23.35 8.6344 23.062 8.6524 22.792C8.6524 22.54 8.6524 22.306 8.6524 22.09C8.6344 21.874 8.6164 21.694 8.5804 21.532C8.5444 21.388 8.4904 21.262 8.4004 21.154C8.2924 21.064 8.1664 21.01 8.0044 20.974C7.7884 20.938 6.9064 20.902 5.3584 20.848C3.8104 20.812 2.8744 20.776 2.5504 20.776C2.3344 20.776 2.1724 20.65 2.0644 20.38C1.8304 19.876 1.8124 19.264 2.0104 18.526C2.0284 18.4 2.1904 18.31 2.4964 18.238C2.5324 18.22 2.8924 18.22 3.5764 18.22C4.2604 18.22 4.6204 18.22 4.6564 18.22C5.0344 18.202 6.1504 18.166 7.9864 18.13C9.8224 18.094 10.8844 18.058 11.2084 18.04C11.5684 18.04 12.5764 18.022 14.2144 18.004C15.8524 18.004 16.7704 17.986 16.9684 17.986C17.2204 17.986 17.4364 18.148 17.5984 18.508C17.8504 19.048 17.9044 19.57 17.7604 20.074C17.7064 20.254 17.5624 20.398 17.3284 20.488C17.0584 20.596 16.1224 20.686 14.5204 20.722C12.9004 20.758 12.0724 20.794 12.0004 20.794L11.6944 20.848ZM8.0584 9.436C9.5164 9.346 10.3264 9.292 10.5064 9.274C10.8124 9.274 11.1544 9.382 11.5144 9.562C11.5864 9.598 11.6584 9.688 11.7304 9.796C11.7844 9.904 11.8204 10.012 11.8204 10.084C11.8024 10.84 11.9104 11.488 12.1264 12.064C12.2164 12.352 12.4144 12.532 12.7024 12.604C13.5304 12.802 14.5924 13.072 15.8524 13.432C16.0684 13.504 16.2124 13.576 16.3024 13.666C16.3744 13.774 16.3744 13.918 16.2844 14.116C16.2124 14.26 16.1584 14.44 16.1224 14.692C16.0684 14.944 16.0324 15.106 16.0144 15.178C15.9064 15.556 15.6904 15.826 15.4024 15.988C15.0964 16.15 14.7004 16.258 14.2324 16.312C14.1604 16.33 13.9264 16.366 13.5664 16.438C13.2064 16.51 12.9184 16.528 12.7384 16.528C12.4504 16.528 12.1804 16.438 11.8924 16.222C11.5504 15.97 11.2444 15.664 10.9744 15.304C10.5604 14.8 10.0564 14.44 9.4444 14.188C9.1924 14.08 8.9224 14.098 8.5984 14.224C7.9864 14.476 7.2304 14.818 6.3664 15.25C6.3304 15.268 6.2764 15.286 6.2224 15.304C5.9704 15.448 5.7724 15.538 5.6284 15.592C5.4844 15.664 5.2864 15.718 5.0524 15.772C4.8004 15.826 4.5844 15.844 4.3684 15.826C4.0984 15.808 3.9184 15.754 3.8284 15.682C3.7204 15.61 3.6664 15.466 3.6304 15.232C3.5944 15.016 3.5404 14.818 3.4684 14.602C3.1804 13.81 3.4504 13.216 4.2964 12.838C6.3844 11.902 7.4644 11.398 7.5544 11.362C7.7704 11.272 7.9324 11.146 8.0044 10.984C8.0764 10.822 8.1304 10.624 8.1484 10.372C8.1484 10.336 8.1124 10.03 8.0584 9.436ZM35.7784 14.782C35.7604 15.538 35.5804 16.06 35.2384 16.348C35.0944 16.456 34.9144 16.546 34.6984 16.582C34.4824 16.618 34.2844 16.636 34.1224 16.618H33.8884L33.4924 16.51C33.2404 16.456 33.1324 16.294 33.1324 16.042C33.1324 14.026 33.1324 12.64 33.0964 11.92C33.0424 11.128 33.0244 10.156 33.0244 9.004C33.0244 8.77 33.0964 8.572 33.2764 8.41C33.4384 8.266 33.6544 8.176 33.9064 8.176L35.1844 8.302L35.3644 8.446C35.4364 8.5 35.5264 8.608 35.6704 8.77C35.7964 8.932 35.8684 9.094 35.8684 9.238V11.02C35.8504 11.02 35.8324 11.236 35.8324 11.65C35.8324 12.082 35.8144 12.64 35.8144 13.324C35.7964 14.008 35.7784 14.494 35.7784 14.782ZM31.8184 11.182C32.1604 11.254 32.3944 11.344 32.5204 11.452C32.6464 11.56 32.7184 11.776 32.7544 12.064C32.7544 12.208 32.7724 12.424 32.7724 12.712V13.198C32.7724 13.504 32.5744 13.72 32.1604 13.864C31.8724 13.972 31.5304 14.044 31.1344 14.098C30.6664 14.17 30.3964 14.008 30.3244 13.612C30.1444 12.856 30.2524 12.1 30.6844 11.344C30.7204 11.308 30.7744 11.272 30.8464 11.236C30.9184 11.218 31.0444 11.2 31.2064 11.182C31.3504 11.164 31.4584 11.146 31.4944 11.128C31.4944 11.128 31.6024 11.146 31.8184 11.182ZM24.8884 10.786C24.2404 10.642 23.4304 10.66 22.4584 10.84C21.4864 11.02 20.8024 11.11 20.4424 11.092C20.5684 10.012 20.6584 9.238 20.7304 8.77C21.6844 8.644 22.1884 8.572 22.2604 8.572C23.8804 8.482 24.9244 8.446 25.4284 8.464C25.6804 8.482 25.9324 8.518 26.1844 8.554C26.4364 8.608 26.7604 8.68 27.1564 8.77C27.5344 8.878 27.7864 8.932 27.9304 8.95C28.3624 9.058 28.5244 9.364 28.3804 9.85C28.2364 10.336 28.1284 10.678 28.0564 10.894C27.9844 11.11 27.8404 11.38 27.6604 11.74C27.4804 12.1 27.2644 12.388 27.0124 12.622C26.9404 12.694 26.8504 12.784 26.7424 12.892C26.6164 13 26.5264 13.09 26.4904 13.126C26.4544 13.162 26.4004 13.216 26.3644 13.288C26.3284 13.36 26.3104 13.432 26.3284 13.468C26.3464 13.522 26.3824 13.576 26.4544 13.648C26.5084 13.72 26.5984 13.792 26.7244 13.864C26.7964 13.918 26.9044 14.026 27.0844 14.17C27.2464 14.314 27.3544 14.422 27.3904 14.476C27.5524 14.71 27.7684 14.944 28.0204 15.196C28.2724 15.448 28.4704 15.682 28.6324 15.916C28.9204 16.348 28.8664 16.672 28.4344 16.888C28.2904 16.978 28.0924 17.104 27.8404 17.284C27.5884 17.464 27.4084 17.572 27.3184 17.626C27.2284 17.698 27.1564 17.734 27.0844 17.752C27.0124 17.77 26.9224 17.77 26.8324 17.734C26.7424 17.698 26.6884 17.68 26.6524 17.662C26.6164 17.662 26.5444 17.608 26.4184 17.518C26.2924 17.446 26.2204 17.392 26.2024 17.374C26.1124 17.338 26.0584 17.302 26.0404 17.266C26.0044 17.23 25.9864 17.212 25.9864 17.194C25.9864 17.176 25.9504 17.122 25.8964 17.05C25.8244 16.978 25.7344 16.87 25.6084 16.744C25.5544 16.708 25.4644 16.6 25.3204 16.402C25.1764 16.222 25.0324 16.06 24.9244 15.952C24.5644 15.592 24.1684 15.43 23.7364 15.43C23.3044 15.43 22.7824 15.646 22.1344 16.078C21.7744 16.312 21.3964 16.618 21.0004 16.996C20.6404 17.32 20.4244 17.248 20.3164 16.798C20.0824 15.862 19.9564 15.286 19.9204 15.052C19.8484 14.656 19.9024 14.296 20.0824 13.99C20.2624 13.702 20.5684 13.486 20.9824 13.342C21.5944 13.162 22.1704 12.91 22.6924 12.55C23.1964 12.19 23.7904 11.722 24.4744 11.128C24.4744 11.128 24.6184 11.02 24.8884 10.786ZM29.9644 22.63C30.2524 22.63 30.5044 22.522 30.7204 22.27C30.9364 22.036 31.0444 21.748 31.0444 21.388C31.0444 20.884 30.7564 20.578 30.2164 20.452C29.6224 20.344 28.4524 20.272 26.7064 20.272H26.6884C26.5084 20.272 26.3644 20.308 26.2384 20.362C26.1124 20.434 26.0044 20.524 25.9324 20.65C25.8604 20.776 25.8064 20.884 25.7704 20.974C25.7344 21.082 25.6984 21.208 25.6624 21.388C25.6264 21.478 25.6264 21.55 25.6264 21.622C25.6264 21.82 25.6804 21.982 25.8244 22.09C25.9684 22.216 26.1304 22.288 26.3464 22.324C26.5444 22.378 26.8144 22.414 27.1744 22.45C27.5164 22.486 27.8224 22.522 28.0924 22.522C28.3444 22.54 28.6864 22.558 29.1004 22.576C29.5144 22.612 29.7844 22.63 29.9104 22.63H29.9644ZM27.3184 18.436C28.0024 18.436 28.8304 18.508 29.7664 18.616C30.7024 18.724 31.4944 18.868 32.1424 19.048C33.2404 19.372 33.8524 19.948 33.9784 20.776C34.0144 20.992 34.0324 21.19 34.0324 21.37C34.0324 22.18 33.7084 22.828 33.0784 23.296C32.6464 23.62 32.2864 23.89 31.9984 24.07C31.7104 24.25 31.3684 24.43 30.9364 24.592C30.5044 24.772 30.0724 24.862 29.6404 24.862C29.4604 24.862 29.0284 24.898 28.3264 24.934C27.6244 24.97 27.1564 24.988 26.9224 24.988C26.5804 24.988 26.2744 24.97 26.0224 24.916C25.9504 24.916 25.8784 24.916 25.7704 24.88C25.2664 24.808 24.8704 24.736 24.6184 24.682C24.3484 24.628 24.0244 24.52 23.6464 24.34C23.2684 24.178 22.9444 23.962 22.6924 23.692C22.2064 23.224 21.9724 22.792 21.9724 22.378C21.9724 21.55 22.0804 20.92 22.3324 20.506C22.9984 19.39 24.3844 18.706 26.4724 18.49C26.7424 18.454 27.0304 18.436 27.3184 18.436ZM59.3474 9.184C59.3834 9.436 59.4194 9.994 59.4374 10.894C59.4374 11.794 59.4374 12.352 59.4014 12.568C59.4014 12.64 59.4194 12.748 59.4554 12.892C59.4914 13.036 59.5274 13.108 59.5274 13.108C59.5454 13.198 59.7254 13.306 60.0494 13.432C60.1214 13.486 60.2654 13.522 60.4454 13.558C60.6254 13.594 60.7514 13.63 60.8234 13.648C61.0214 13.72 61.1474 13.81 61.2014 13.918C61.2374 14.026 61.2374 14.188 61.2014 14.386C61.0394 15.016 60.6614 15.394 60.0674 15.538C59.9594 15.574 59.8514 15.574 59.7614 15.556C59.6534 15.538 59.5994 15.52 59.5814 15.484C59.5454 15.466 59.5274 15.466 59.4914 15.484C59.4554 15.52 59.4734 15.592 59.5274 15.718C59.5634 15.934 59.5814 16.474 59.5634 17.302C59.5274 18.148 59.4554 18.67 59.3474 18.868C59.1854 19.138 59.0594 19.3 58.9514 19.354C58.3934 19.66 57.8534 19.696 57.3494 19.462C57.2054 19.408 57.1154 19.282 57.0974 19.102C57.0614 18.922 57.0794 18.76 57.1154 18.598C57.1154 18.382 57.1154 17.806 57.0974 16.888C57.0794 15.97 57.0794 15.466 57.0794 15.376C57.0974 12.172 57.1514 10.138 57.2414 9.238C57.2774 8.878 57.4754 8.68 57.8534 8.662C58.0694 8.662 58.3034 8.644 58.5374 8.608C58.8614 8.572 59.0594 8.572 59.1314 8.608C59.2034 8.662 59.2394 8.77 59.2754 8.914C59.2934 9.058 59.3114 9.148 59.3474 9.184ZM55.7474 17.05C55.8014 17.518 55.8014 17.824 55.7294 17.95C55.6574 18.094 55.4954 18.148 55.2434 18.148C54.3254 18.256 52.2914 18.292 49.1234 18.22C48.7814 18.22 47.6654 18.238 45.7754 18.274C45.3974 18.292 45.1274 18.184 44.9474 17.932C44.7674 17.698 44.7314 17.374 44.8034 16.978L44.8394 16.69C44.8394 16.618 44.8394 16.564 44.8574 16.528C44.8754 16.51 44.9474 16.474 45.0554 16.402C45.0914 16.366 45.1454 16.348 45.1814 16.33L48.6374 15.916C48.8534 15.268 49.0874 14.818 49.3394 14.584C49.3574 14.584 49.3754 14.566 49.4114 14.566C48.4394 14.422 47.4314 14.152 46.3514 13.756C45.3434 13.396 44.8214 12.82 44.7854 12.046C44.7134 11.038 45.0374 10.282 45.7934 9.796C46.2074 9.526 46.5494 9.31 46.8194 9.166C47.0894 9.022 47.4314 8.878 47.8454 8.752C48.2594 8.644 48.6734 8.59 49.0694 8.59C49.2314 8.608 49.5014 8.608 49.8794 8.608C50.2574 8.608 50.5994 8.626 50.8874 8.644C51.1754 8.662 51.4454 8.698 51.6974 8.752C51.7334 8.77 51.8414 8.806 52.0394 8.842C52.2374 8.896 52.3634 8.932 52.4174 8.932C52.4534 8.95 52.5794 8.986 52.7594 9.022C52.9394 9.076 53.0474 9.112 53.1194 9.148C53.1914 9.184 53.2994 9.22 53.4434 9.274C53.5874 9.346 53.7134 9.4 53.8034 9.436C53.8754 9.49 53.9834 9.544 54.0914 9.616C54.1994 9.688 54.3074 9.778 54.3974 9.85C54.4874 9.94 54.5774 10.03 54.6674 10.12C55.0274 10.552 55.2074 10.912 55.2254 11.236C55.2434 11.56 55.0634 11.974 54.7034 12.514C54.1274 13.306 53.5694 13.864 53.0294 14.188C52.4714 14.512 51.7694 14.656 50.9414 14.656H50.8874C50.9414 14.746 50.9954 14.908 51.0674 15.16C51.1214 15.412 51.1754 15.556 51.2294 15.628C51.3014 15.772 51.6074 15.862 52.1114 15.916C52.6154 15.97 53.1554 16.006 53.7314 16.024C54.2894 16.042 54.6314 16.06 54.7394 16.078C54.9914 16.168 55.1174 16.204 55.1534 16.204C55.4054 16.312 55.5674 16.402 55.6394 16.51C55.7114 16.618 55.7474 16.798 55.7474 17.05ZM50.3294 13H50.5094H50.6894C50.9954 13 51.2294 12.928 51.3914 12.784C51.5354 12.64 51.6794 12.388 51.7874 12.028C51.9134 11.56 51.6974 11.254 51.1574 11.11C50.4374 10.93 49.5914 10.768 48.6554 10.642C48.3674 10.606 48.1334 10.696 47.9174 10.876C47.7014 11.056 47.5754 11.308 47.5394 11.596C47.4674 12.136 47.7194 12.478 48.2954 12.622C48.4934 12.694 48.7634 12.748 49.1054 12.82C49.4294 12.892 49.7174 12.928 49.9694 12.964C50.2034 13 50.3294 13.018 50.3294 13ZM52.2374 21.532H54.0914H56.0714C57.7634 21.532 58.8794 21.55 59.4014 21.55C59.4374 21.55 59.4914 21.568 59.5274 21.568C59.5634 21.586 59.5814 21.604 59.6174 21.604C59.6354 21.622 59.6534 21.64 59.6894 21.676L59.7434 21.766C59.7434 21.784 59.7614 21.82 59.7794 21.856C59.7794 21.91 59.7974 21.946 59.7974 21.964C59.7974 21.982 59.8154 22.018 59.8334 22.072C59.8334 22.126 59.8514 22.162 59.8514 22.162C59.8694 22.288 59.8874 22.414 59.8874 22.54C59.8874 23.08 59.7614 23.548 59.5454 23.98C59.4734 24.106 59.3294 24.196 59.0774 24.232C58.8254 24.268 57.9254 24.304 56.3774 24.304C54.8294 24.322 53.9114 24.34 53.6234 24.376C53.5514 24.394 53.4794 24.394 53.4254 24.394C53.1194 24.394 52.4714 24.412 51.4814 24.43C50.4914 24.448 49.7714 24.466 49.3214 24.484C49.2134 24.484 49.0154 24.502 48.7634 24.52C48.5114 24.538 48.3134 24.538 48.1874 24.538C47.7734 24.538 47.4314 24.466 47.1614 24.304C47.0894 24.268 47.0174 24.178 46.9454 24.07C46.8734 23.962 46.8374 23.872 46.8374 23.764C46.8014 23.224 46.7474 22.36 46.6934 21.136C46.6214 19.93 46.5854 19.174 46.5854 18.886H46.6034C46.8374 18.886 47.0714 18.886 47.2874 18.868C47.3054 18.868 47.3954 18.868 47.5394 18.832C47.6834 18.814 47.7734 18.796 47.8454 18.796C48.0614 18.796 48.3854 18.868 48.8174 19.012C48.9614 19.066 49.0334 19.156 49.0334 19.282C49.0334 19.336 49.0154 19.408 49.0154 19.498C49.0154 19.606 49.0154 19.678 49.0154 19.732V20.11V20.47V21.01V21.532H52.2374ZM67.0334 21.838C67.0334 21.694 67.0694 21.514 67.1414 21.262C67.2134 21.01 67.2494 20.812 67.2674 20.668C67.2854 20.074 67.3034 19.678 67.3394 19.48C67.3394 19.336 67.4114 19.21 67.5194 19.12C67.6274 19.048 67.7534 19.012 67.9154 19.012C68.2574 19.03 68.6534 19.066 69.1034 19.102C69.2474 19.138 69.3374 19.228 69.3374 19.39C69.3194 19.966 69.3194 20.38 69.3374 20.632C69.3374 20.812 69.3914 21.136 69.4634 21.568C69.4634 21.64 69.4994 21.694 69.5714 21.712C69.6254 21.748 69.7334 21.784 69.8954 21.856C70.0574 21.928 70.2014 21.964 70.3094 22C70.4174 22.036 70.5434 22.054 70.6514 22.054C70.9034 22.09 71.3174 22.054 71.8934 21.946C71.9294 21.946 71.9654 21.892 72.0014 21.82C72.0374 21.748 72.0734 21.658 72.0914 21.586C72.0914 21.442 72.1094 21.172 72.1454 20.812C72.1814 20.452 72.2174 20.182 72.2534 19.984C72.2894 19.732 72.3794 19.498 72.5414 19.282C72.5774 19.246 72.7934 19.174 73.2254 19.084C73.7294 18.976 74.0354 19.192 74.1434 19.714C74.2154 20.038 74.2334 20.452 74.1974 20.956C74.1794 21.136 74.6474 21.316 75.6194 21.46C76.5734 21.622 77.2574 21.712 77.6714 21.712H78.4454C78.5894 21.73 78.6794 21.784 78.7154 21.892C78.9314 22.45 79.0394 22.828 79.0754 23.008C79.1114 23.296 79.0394 23.512 78.8954 23.692C78.7514 23.872 78.5174 23.98 78.1934 24.016C78.0854 24.034 77.7074 24.034 77.0954 24.034C76.4654 24.034 75.8174 24.034 75.1514 24.034C74.4674 24.034 74.1074 24.016 74.0354 24.016C73.7834 24.034 73.1354 24.052 72.1094 24.052C71.0834 24.052 70.2914 24.07 69.7514 24.07C69.5894 24.088 69.3374 24.106 69.0134 24.142C68.6894 24.178 68.4374 24.196 68.2934 24.196C67.7894 24.196 66.1874 24.124 63.4874 23.962H63.4154C63.3794 23.962 63.3434 23.944 63.3254 23.944C63.0914 23.98 62.9474 23.962 62.8754 23.908C62.8034 23.854 62.7674 23.71 62.7674 23.494C62.7494 23.17 62.7494 22.756 62.7674 22.252C62.7674 22.108 62.8574 22 63.0014 21.892C63.1454 21.802 63.3254 21.748 63.5414 21.748C63.6494 21.748 64.2254 21.766 65.3054 21.802C66.3674 21.838 66.9434 21.838 67.0334 21.838ZM68.4374 15.61C68.3654 16.024 68.3834 16.276 68.4734 16.366C68.5634 16.456 68.8154 16.456 69.2114 16.384C69.5894 16.312 70.2194 16.258 71.1194 16.222C71.5334 16.222 72.1274 16.204 72.8834 16.168C73.6394 16.15 74.1974 16.132 74.5214 16.114C74.5214 16.114 75.0254 16.078 76.0334 16.006C76.2314 16.006 76.3754 16.042 76.4654 16.132C76.5554 16.222 76.5914 16.366 76.5914 16.582C76.5914 16.87 76.5734 17.104 76.5554 17.284C76.5194 17.464 76.4834 17.662 76.4114 17.878C76.3394 18.094 76.2134 18.274 76.0694 18.418C75.9074 18.562 75.7094 18.67 75.4574 18.742C75.3134 18.778 75.1514 18.814 74.9714 18.814C74.7914 18.814 74.5934 18.814 74.3414 18.778C74.0894 18.76 73.9094 18.742 73.8374 18.742C73.3154 18.724 72.6494 18.688 71.8574 18.634C70.2014 18.544 68.5634 18.436 66.9254 18.31C66.8534 18.31 66.7814 18.292 66.6734 18.238C66.2774 18.076 65.8994 17.698 65.5394 17.104C65.1614 16.528 64.9994 16.042 65.0354 15.646C65.0894 15.07 65.2154 14.512 65.4134 14.008C65.5214 13.684 65.6654 13.486 65.8454 13.414C66.0074 13.342 66.2774 13.324 66.6374 13.396C66.7274 13.414 66.8174 13.432 66.9254 13.432C67.0334 13.432 67.1414 13.432 67.2854 13.414C67.4294 13.414 67.5374 13.396 67.6094 13.396C67.6274 13.396 67.7894 13.396 68.1134 13.396C68.4194 13.396 68.5814 13.396 68.6174 13.396C68.6894 13.396 68.9774 13.414 69.4814 13.45C69.9854 13.486 70.3814 13.486 70.6514 13.468C71.4794 13.45 72.2174 13.378 72.8654 13.252C73.0274 13.216 73.1354 13.144 73.2074 13.036C73.2614 12.928 73.2974 12.766 73.3154 12.568C73.3154 12.388 73.3514 12.244 73.3874 12.172C73.3874 12.172 73.3514 12.136 73.3154 12.1C73.2614 12.064 73.2074 12.028 73.1354 11.992C73.0634 11.956 72.9914 11.92 72.9554 11.902C72.7034 11.848 72.4334 11.812 72.1454 11.812C71.8214 11.812 71.2634 11.812 70.4714 11.812C69.6794 11.812 69.1394 11.812 68.8334 11.794C68.6534 11.794 68.3474 11.794 67.9154 11.758C67.4654 11.722 67.1234 11.704 66.9074 11.704C66.3674 11.74 65.7914 11.812 65.1614 11.956C65.0174 11.992 64.8914 11.992 64.8194 11.956C64.7474 11.92 64.7114 11.83 64.7114 11.686C64.7294 10.48 64.7654 9.688 64.8194 9.292C64.8554 8.95 64.9814 8.698 65.1614 8.554C65.3414 8.41 65.6114 8.338 65.9714 8.338C67.7354 8.302 69.2114 8.428 70.4174 8.734C70.5254 8.77 70.6694 8.788 70.8134 8.806C70.9574 8.824 71.1014 8.842 71.2094 8.842C71.3174 8.842 71.4614 8.842 71.6414 8.842C71.8214 8.842 71.9474 8.86 72.0374 8.86C72.1634 8.86 72.5054 8.878 73.0454 8.896C73.5854 8.914 73.9814 8.932 74.2334 8.95C74.4674 8.968 74.7914 9.004 75.2054 9.058C75.6014 9.112 75.9794 9.184 76.3034 9.292C76.5914 9.4 76.8254 9.562 76.9874 9.796C77.3654 10.426 77.4734 11.29 77.3114 12.406C77.2754 12.64 77.1854 12.982 77.0774 13.432C76.9514 13.882 76.8794 14.224 76.8434 14.458C76.7714 14.854 76.6094 15.142 76.3574 15.322C76.1054 15.502 75.7634 15.61 75.3674 15.664C74.4314 15.808 73.4954 15.88 72.5594 15.88H72.2534C71.8934 15.88 71.5154 15.862 71.1194 15.826C70.7234 15.79 70.2554 15.754 69.7514 15.7C69.2474 15.664 68.8694 15.628 68.6354 15.592C68.6174 15.592 68.5454 15.61 68.4374 15.61Z" fill="white"/>
</svg>
