<svg width="117" height="31" viewBox="0 0 117 31" fill="none" xmlns="http://www.w3.org/2000/svg">
<path d="M11.8804 19.848C11.8444 20.028 11.7904 20.496 11.7184 21.234C11.6464 21.972 11.6104 22.404 11.5924 22.512C11.5384 22.782 11.3764 22.944 11.1244 22.98C10.8544 23.034 10.2424 23.07 9.27043 23.088C9.12643 23.088 9.03643 23.052 8.96443 22.98C8.89243 22.908 8.83843 22.8 8.83843 22.656C8.82043 22.35 8.82043 22.062 8.83843 21.792C8.83843 21.54 8.83843 21.306 8.83843 21.09C8.82043 20.874 8.80243 20.694 8.76643 20.532C8.73043 20.388 8.67643 20.262 8.58643 20.154C8.47843 20.064 8.35243 20.01 8.19043 19.974C7.97443 19.938 7.09243 19.902 5.54443 19.848C3.99643 19.812 3.06043 19.776 2.73643 19.776C2.52043 19.776 2.35843 19.65 2.25043 19.38C2.01643 18.876 1.99843 18.264 2.19643 17.526C2.21443 17.4 2.37643 17.31 2.68243 17.238C2.71843 17.22 3.07843 17.22 3.76243 17.22C4.44643 17.22 4.80643 17.22 4.84243 17.22C5.22043 17.202 6.33643 17.166 8.17243 17.13C10.0084 17.094 11.0704 17.058 11.3944 17.04C11.7544 17.04 12.7624 17.022 14.4004 17.004C16.0384 17.004 16.9564 16.986 17.1544 16.986C17.4064 16.986 17.6224 17.148 17.7844 17.508C18.0364 18.048 18.0904 18.57 17.9464 19.074C17.8924 19.254 17.7484 19.398 17.5144 19.488C17.2444 19.596 16.3084 19.686 14.7064 19.722C13.0864 19.758 12.2584 19.794 12.1864 19.794L11.8804 19.848ZM8.24443 8.436C9.70243 8.346 10.5124 8.292 10.6924 8.274C10.9984 8.274 11.3404 8.382 11.7004 8.562C11.7724 8.598 11.8444 8.688 11.9164 8.796C11.9704 8.904 12.0064 9.012 12.0064 9.084C11.9884 9.84 12.0964 10.488 12.3124 11.064C12.4024 11.352 12.6004 11.532 12.8884 11.604C13.7164 11.802 14.7784 12.072 16.0384 12.432C16.2544 12.504 16.3984 12.576 16.4884 12.666C16.5604 12.774 16.5604 12.918 16.4704 13.116C16.3984 13.26 16.3444 13.44 16.3084 13.692C16.2544 13.944 16.2184 14.106 16.2004 14.178C16.0924 14.556 15.8764 14.826 15.5884 14.988C15.2824 15.15 14.8864 15.258 14.4184 15.312C14.3464 15.33 14.1124 15.366 13.7524 15.438C13.3924 15.51 13.1044 15.528 12.9244 15.528C12.6364 15.528 12.3664 15.438 12.0784 15.222C11.7364 14.97 11.4304 14.664 11.1604 14.304C10.7464 13.8 10.2424 13.44 9.63043 13.188C9.37843 13.08 9.10843 13.098 8.78443 13.224C8.17243 13.476 7.41643 13.818 6.55243 14.25C6.51643 14.268 6.46243 14.286 6.40843 14.304C6.15643 14.448 5.95843 14.538 5.81443 14.592C5.67043 14.664 5.47243 14.718 5.23843 14.772C4.98643 14.826 4.77043 14.844 4.55443 14.826C4.28443 14.808 4.10443 14.754 4.01443 14.682C3.90643 14.61 3.85243 14.466 3.81643 14.232C3.78043 14.016 3.72643 13.818 3.65443 13.602C3.36643 12.81 3.63643 12.216 4.48243 11.838C6.57043 10.902 7.65043 10.398 7.74043 10.362C7.95643 10.272 8.11843 10.146 8.19043 9.984C8.26243 9.822 8.31643 9.624 8.33443 9.372C8.33443 9.336 8.29843 9.03 8.24443 8.436ZM35.9644 13.782C35.9464 14.538 35.7664 15.06 35.4244 15.348C35.2804 15.456 35.1004 15.546 34.8844 15.582C34.6684 15.618 34.4704 15.636 34.3084 15.618H34.0744L33.6784 15.51C33.4264 15.456 33.3184 15.294 33.3184 15.042C33.3184 13.026 33.3184 11.64 33.2824 10.92C33.2284 10.128 33.2104 9.156 33.2104 8.004C33.2104 7.77 33.2824 7.572 33.4624 7.41C33.6244 7.266 33.8404 7.176 34.0924 7.176L35.3704 7.302L35.5504 7.446C35.6224 7.5 35.7124 7.608 35.8564 7.77C35.9824 7.932 36.0544 8.094 36.0544 8.238V10.02C36.0364 10.02 36.0184 10.236 36.0184 10.65C36.0184 11.082 36.0004 11.64 36.0004 12.324C35.9824 13.008 35.9644 13.494 35.9644 13.782ZM32.0044 10.182C32.3464 10.254 32.5804 10.344 32.7064 10.452C32.8324 10.56 32.9044 10.776 32.9404 11.064C32.9404 11.208 32.9584 11.424 32.9584 11.712V12.198C32.9584 12.504 32.7604 12.72 32.3464 12.864C32.0584 12.972 31.7164 13.044 31.3204 13.098C30.8524 13.17 30.5824 13.008 30.5104 12.612C30.3304 11.856 30.4384 11.1 30.8704 10.344C30.9064 10.308 30.9604 10.272 31.0324 10.236C31.1044 10.218 31.2304 10.2 31.3924 10.182C31.5364 10.164 31.6444 10.146 31.6804 10.128C31.6804 10.128 31.7884 10.146 32.0044 10.182ZM25.0744 9.786C24.4264 9.642 23.6164 9.66 22.6444 9.84C21.6724 10.02 20.9884 10.11 20.6284 10.092C20.7544 9.012 20.8444 8.238 20.9164 7.77C21.8704 7.644 22.3744 7.572 22.4464 7.572C24.0664 7.482 25.1104 7.446 25.6144 7.464C25.8664 7.482 26.1184 7.518 26.3704 7.554C26.6224 7.608 26.9464 7.68 27.3424 7.77C27.7204 7.878 27.9724 7.932 28.1164 7.95C28.5484 8.058 28.7104 8.364 28.5664 8.85C28.4224 9.336 28.3144 9.678 28.2424 9.894C28.1704 10.11 28.0264 10.38 27.8464 10.74C27.6664 11.1 27.4504 11.388 27.1984 11.622C27.1264 11.694 27.0364 11.784 26.9284 11.892C26.8024 12 26.7124 12.09 26.6764 12.126C26.6404 12.162 26.5864 12.216 26.5504 12.288C26.5144 12.36 26.4964 12.432 26.5144 12.468C26.5324 12.522 26.5684 12.576 26.6404 12.648C26.6944 12.72 26.7844 12.792 26.9104 12.864C26.9824 12.918 27.0904 13.026 27.2704 13.17C27.4324 13.314 27.5404 13.422 27.5764 13.476C27.7384 13.71 27.9544 13.944 28.2064 14.196C28.4584 14.448 28.6564 14.682 28.8184 14.916C29.1064 15.348 29.0524 15.672 28.6204 15.888C28.4764 15.978 28.2784 16.104 28.0264 16.284C27.7744 16.464 27.5944 16.572 27.5044 16.626C27.4144 16.698 27.3424 16.734 27.2704 16.752C27.1984 16.77 27.1084 16.77 27.0184 16.734C26.9284 16.698 26.8744 16.68 26.8384 16.662C26.8024 16.662 26.7304 16.608 26.6044 16.518C26.4784 16.446 26.4064 16.392 26.3884 16.374C26.2984 16.338 26.2444 16.302 26.2264 16.266C26.1904 16.23 26.1724 16.212 26.1724 16.194C26.1724 16.176 26.1364 16.122 26.0824 16.05C26.0104 15.978 25.9204 15.87 25.7944 15.744C25.7404 15.708 25.6504 15.6 25.5064 15.402C25.3624 15.222 25.2184 15.06 25.1104 14.952C24.7504 14.592 24.3544 14.43 23.9224 14.43C23.4904 14.43 22.9684 14.646 22.3204 15.078C21.9604 15.312 21.5824 15.618 21.1864 15.996C20.8264 16.32 20.6104 16.248 20.5024 15.798C20.2684 14.862 20.1424 14.286 20.1064 14.052C20.0344 13.656 20.0884 13.296 20.2684 12.99C20.4484 12.702 20.7544 12.486 21.1684 12.342C21.7804 12.162 22.3564 11.91 22.8784 11.55C23.3824 11.19 23.9764 10.722 24.6604 10.128C24.6604 10.128 24.8044 10.02 25.0744 9.786ZM30.1504 21.63C30.4384 21.63 30.6904 21.522 30.9064 21.27C31.1224 21.036 31.2304 20.748 31.2304 20.388C31.2304 19.884 30.9424 19.578 30.4024 19.452C29.8084 19.344 28.6384 19.272 26.8924 19.272H26.8744C26.6944 19.272 26.5504 19.308 26.4244 19.362C26.2984 19.434 26.1904 19.524 26.1184 19.65C26.0464 19.776 25.9924 19.884 25.9564 19.974C25.9204 20.082 25.8844 20.208 25.8484 20.388C25.8124 20.478 25.8124 20.55 25.8124 20.622C25.8124 20.82 25.8664 20.982 26.0104 21.09C26.1544 21.216 26.3164 21.288 26.5324 21.324C26.7304 21.378 27.0004 21.414 27.3604 21.45C27.7024 21.486 28.0084 21.522 28.2784 21.522C28.5304 21.54 28.8724 21.558 29.2864 21.576C29.7004 21.612 29.9704 21.63 30.0964 21.63H30.1504ZM27.5044 17.436C28.1884 17.436 29.0164 17.508 29.9524 17.616C30.8884 17.724 31.6804 17.868 32.3284 18.048C33.4264 18.372 34.0384 18.948 34.1644 19.776C34.2004 19.992 34.2184 20.19 34.2184 20.37C34.2184 21.18 33.8944 21.828 33.2644 22.296C32.8324 22.62 32.4724 22.89 32.1844 23.07C31.8964 23.25 31.5544 23.43 31.1224 23.592C30.6904 23.772 30.2584 23.862 29.8264 23.862C29.6464 23.862 29.2144 23.898 28.5124 23.934C27.8104 23.97 27.3424 23.988 27.1084 23.988C26.7664 23.988 26.4604 23.97 26.2084 23.916C26.1364 23.916 26.0644 23.916 25.9564 23.88C25.4524 23.808 25.0564 23.736 24.8044 23.682C24.5344 23.628 24.2104 23.52 23.8324 23.34C23.4544 23.178 23.1304 22.962 22.8784 22.692C22.3924 22.224 22.1584 21.792 22.1584 21.378C22.1584 20.55 22.2664 19.92 22.5184 19.506C23.1844 18.39 24.5704 17.706 26.6584 17.49C26.9284 17.454 27.2164 17.436 27.5044 17.436ZM50.7244 23.016C50.1484 23.016 49.7524 22.926 49.5364 22.71C49.3204 22.494 49.2124 22.098 49.1764 21.504C49.0864 19.83 49.0504 18.678 49.0504 18.048C49.0504 17.166 49.1044 14.376 49.2304 9.696C49.2304 9.57 49.2484 9.426 49.2844 9.282C49.3024 9.138 49.3204 9.012 49.3564 8.904C49.3744 8.796 49.4104 8.67 49.4644 8.49C49.5004 8.31 49.5364 8.184 49.5724 8.076C49.6084 7.932 49.6804 7.824 49.8064 7.788C49.8424 7.788 49.9684 7.752 50.1664 7.698C50.3644 7.644 50.5084 7.608 50.5804 7.59C50.6524 7.572 50.7604 7.554 50.9404 7.518C51.1024 7.482 51.2284 7.482 51.3364 7.482C51.4444 7.482 51.5704 7.5 51.7144 7.536C51.8584 7.572 51.9844 7.608 52.1284 7.662C52.4704 7.842 52.6684 8.166 52.7044 8.634C52.7044 8.85 52.7224 9.57 52.7404 10.812C52.7404 12.054 52.7764 12.828 52.8124 13.134C52.8484 13.35 52.9744 13.584 53.1904 13.818C53.2984 13.944 53.4064 14.07 53.5324 14.196C53.6584 14.34 53.8024 14.484 53.9644 14.628C54.1084 14.79 54.2344 14.916 54.3424 14.988C54.4864 15.132 54.5764 15.294 54.6484 15.456C54.7204 15.636 54.7384 15.834 54.7204 16.05C54.7024 16.266 54.6844 16.428 54.6664 16.536C54.6304 16.644 54.5944 16.842 54.5224 17.094C54.4144 17.526 54.0364 17.76 53.3884 17.76C53.0464 17.76 52.8304 17.814 52.7584 17.904C52.6684 18.012 52.6324 18.246 52.6504 18.642C52.6504 18.912 52.6504 19.398 52.6684 20.082C52.6864 20.766 52.7044 21.234 52.7044 21.468C52.7044 21.954 52.5784 22.278 52.2904 22.44C51.5704 22.836 51.0484 23.034 50.7244 23.016ZM40.1764 15.924C40.0324 15.906 39.8344 15.87 39.6184 15.834C39.4024 15.798 39.2044 15.762 39.0424 15.726C38.8624 15.69 38.7184 15.672 38.5744 15.636C38.2504 15.6 38.0884 15.456 38.0704 15.204C37.9984 14.556 37.9084 13.782 37.8004 12.846C37.9444 12.846 38.1424 12.81 38.3944 12.774C38.6464 12.738 38.8444 12.72 39.0064 12.684C39.1684 12.666 39.3484 12.648 39.5644 12.648C39.7804 12.648 39.9784 12.666 40.1584 12.702C40.3384 12.738 40.4644 12.738 40.5724 12.738C40.6624 12.738 40.8064 12.738 40.9864 12.702C41.1664 12.684 41.3104 12.666 41.4184 12.666C41.5264 12.666 41.7244 12.666 41.9944 12.666C42.2644 12.666 42.4804 12.648 42.6244 12.648C42.7684 12.648 43.2544 12.612 44.1004 12.558C44.9464 12.522 45.5944 12.486 46.0624 12.468C46.6024 12.468 46.9264 12.522 47.0524 12.648C47.1604 12.792 47.1964 13.116 47.1424 13.656C47.0704 14.268 46.9804 14.772 46.8544 15.186C46.8184 15.24 46.7824 15.294 46.7284 15.33C46.6564 15.384 46.5844 15.438 46.4764 15.492C46.3684 15.546 46.2964 15.582 46.2604 15.6C46.3144 15.816 46.4224 16.158 46.6024 16.608C46.7644 17.058 46.8904 17.454 46.9804 17.814C47.0524 18.174 47.0884 18.534 47.0524 18.894C46.9444 20.244 46.3864 21.252 45.4144 21.918C45.0184 22.206 44.5324 22.296 43.9204 22.224C43.1644 22.152 41.9764 21.936 40.3924 21.594C39.3844 21.396 38.8264 20.748 38.7004 19.668C38.5204 18.282 38.8804 17.166 39.7984 16.338C39.7984 16.338 39.9244 16.194 40.1764 15.924ZM42.8404 19.956C43.8124 19.956 44.4424 19.578 44.7124 18.822C44.7844 18.588 44.7664 18.318 44.6584 17.994C44.5504 17.688 44.3884 17.526 44.2084 17.508C43.4344 17.418 42.8584 17.382 42.4624 17.418C42.0124 17.454 41.6704 17.616 41.4544 17.868C41.2384 18.12 41.1304 18.48 41.1664 18.912C41.1664 19.254 41.2564 19.452 41.4004 19.506C41.5444 19.578 42.0124 19.722 42.8404 19.956ZM44.6044 11.406C43.4884 11.874 42.4084 11.982 41.4004 11.748C40.7884 11.604 40.2844 11.388 39.8524 11.1C39.7804 11.064 39.7444 10.992 39.7084 10.884C39.6724 10.794 39.6364 10.668 39.6184 10.506C39.5824 10.344 39.5644 10.236 39.5644 10.164C39.4924 9.912 39.4384 9.75 39.4384 9.642C39.3844 9.534 39.3664 9.444 39.4024 9.372C39.4384 9.3 39.5284 9.264 39.7084 9.264C39.8524 9.264 40.0504 9.21 40.3384 9.138C40.6084 9.066 40.8064 9.03 40.9144 9.012C42.2464 8.868 43.2184 8.796 43.8304 8.778C43.9384 8.778 44.0464 8.814 44.1184 8.886C44.1904 8.958 44.2444 9.03 44.2624 9.084C44.2804 9.156 44.2984 9.264 44.3344 9.408C44.3704 9.552 44.3884 9.642 44.3884 9.66C44.4244 9.84 44.4424 10.002 44.4784 10.182C44.4964 10.362 44.5144 10.596 44.5324 10.848C44.5504 11.1 44.5684 11.298 44.6044 11.406ZM71.7304 8.238C71.7304 8.256 71.7304 8.274 71.7664 8.274C71.8024 8.31 71.8744 8.328 71.9824 8.364C72.0904 8.4 72.1804 8.418 72.2524 8.454C72.3244 8.49 72.3604 8.526 72.3784 8.562C72.4684 8.904 72.5044 9.3 72.4864 9.732C72.4684 9.876 72.3784 10.83 72.2344 12.594C72.1084 13.926 72.0004 15.258 71.8924 16.59C71.7664 17.886 71.6944 18.66 71.6944 18.912C71.6584 19.128 71.6404 19.416 71.6224 19.794C71.6044 20.172 71.5864 20.514 71.5684 20.82C71.5324 21.126 71.5144 21.414 71.4784 21.684C71.4424 21.936 71.2624 22.296 70.9744 22.782C70.9024 22.908 70.7404 22.962 70.4884 22.962C70.4344 22.98 69.9124 22.98 68.9044 22.98C68.7244 22.98 68.5804 22.944 68.4724 22.836C68.3644 22.728 68.2924 22.602 68.2924 22.422L68.1664 20.532C68.1664 20.496 68.1484 20.37 68.1304 20.154C68.0944 19.938 68.0944 19.776 68.1124 19.668C68.1484 19.146 68.2204 18.624 68.3284 18.102C68.3824 17.76 68.3644 17.526 68.2564 17.418C68.1484 17.31 67.9324 17.292 67.6084 17.364C67.1044 17.472 66.6904 17.346 66.3664 17.022C66.0244 16.698 65.8984 16.302 65.9884 15.798C66.0604 15.33 66.2584 14.952 66.5824 14.664C66.8884 14.394 67.2844 14.232 67.7884 14.196C68.0224 14.196 68.2384 14.106 68.4184 13.944C68.5984 13.782 68.7064 13.584 68.7244 13.368C68.7424 13.008 68.7784 12.45 68.8504 11.658C68.9044 10.884 68.9404 10.29 68.9764 9.876C68.9944 9.696 69.0484 9.372 69.1564 8.94C69.2464 8.544 69.4984 8.364 69.9124 8.364C70.3804 8.382 70.8304 8.382 71.2444 8.382C71.2444 8.382 71.4064 8.346 71.7304 8.238ZM60.2464 17.094C60.2464 17.13 60.2284 17.274 60.2284 17.526C60.2284 17.778 60.2104 17.958 60.2104 18.048C61.3624 17.922 62.6764 17.958 64.1344 18.174C64.3144 18.21 64.4584 18.3 64.5484 18.426C64.6204 18.57 64.6564 18.732 64.6384 18.948C64.6204 19.164 64.5844 19.362 64.5484 19.524C64.5124 19.704 64.4404 19.92 64.3684 20.172C64.2784 20.424 64.2244 20.604 64.2244 20.676C64.1164 21.018 63.8464 21.234 63.4504 21.342C63.3424 21.378 63.0724 21.45 62.6224 21.576C62.1724 21.702 61.8664 21.774 61.7224 21.81C61.5784 21.846 61.3084 21.882 60.9304 21.954C60.5344 22.026 60.2284 22.08 60.0124 22.08C59.7964 22.08 59.5264 22.08 59.2204 22.044C58.8964 22.008 58.6084 21.954 58.3384 21.864C58.1944 21.828 57.9424 21.72 57.5464 21.576C57.1504 21.432 56.8624 21.324 56.6464 21.216C56.2864 21.072 56.1064 20.73 56.1424 20.208C56.1424 19.704 56.2144 19.038 56.3404 18.21C56.4484 17.382 56.5204 16.716 56.5384 16.194C56.5024 15.042 56.8264 14.448 57.5284 14.448C57.8344 14.448 58.2664 14.466 58.8064 14.52C59.3464 14.574 59.8324 14.592 60.2824 14.574C60.7144 14.556 61.1284 14.466 61.5244 14.304C61.5244 14.304 61.5244 14.16 61.4884 13.89C61.4524 13.638 61.4164 13.368 61.3804 13.08C61.3444 12.792 61.3264 12.648 61.3264 12.63C61.3264 12.612 61.3084 12.576 61.2724 12.54C61.2364 12.504 61.2004 12.468 61.1824 12.468C60.2824 12.288 59.7064 12.198 59.4904 12.18C59.3464 12.18 59.1304 12.18 58.8784 12.216C58.6264 12.252 58.4464 12.27 58.3384 12.27C57.8164 12.27 57.1504 12.252 56.3404 12.216C56.2684 12.216 56.1964 12.198 56.1604 12.162C56.1064 12.126 56.0704 12.09 56.0344 12.018C55.9984 11.946 55.9804 11.892 55.9804 11.838C55.9804 11.802 55.9624 11.73 55.9624 11.64C55.9444 11.55 55.9444 11.478 55.9444 11.442C55.9084 11.316 55.8904 11.19 55.8904 11.082C55.8904 10.974 55.8904 10.848 55.9264 10.74C55.9444 10.632 55.9624 10.56 55.9804 10.488C55.9804 10.416 56.0164 10.326 56.0704 10.2C56.1064 10.092 56.1424 10.002 56.1784 9.948C56.1964 9.912 56.2504 9.804 56.3404 9.66C56.4124 9.516 56.4664 9.426 56.5024 9.354C56.5384 9.3 56.7004 9.246 57.0064 9.192C58.3024 8.976 59.0944 8.868 59.3824 8.832C59.5804 8.832 59.8684 8.85 60.2464 8.904C60.6064 8.958 60.8584 8.976 61.0024 8.976C61.1824 8.994 61.4344 8.994 61.7944 8.976C62.1544 8.958 62.4244 8.958 62.6044 8.958C62.9824 8.976 63.3604 9.066 63.7564 9.21C64.1344 9.354 64.4764 9.588 64.7644 9.912C65.0524 10.236 65.1784 10.596 65.1784 11.01C65.1604 11.37 65.1784 12.036 65.2324 12.972C65.2684 13.908 65.2864 14.574 65.2864 14.934C65.2864 15.096 65.2684 15.24 65.2324 15.348C65.1964 15.474 65.1784 15.564 65.1604 15.618C65.1244 15.672 65.0884 15.762 65.0164 15.888C64.9444 16.032 64.8724 16.14 64.8364 16.212C64.7644 16.356 64.6204 16.482 64.4224 16.554C63.3424 16.986 62.4604 17.13 61.7764 16.986C61.5424 16.968 61.3804 16.968 61.2724 16.968C61.1644 16.968 61.0024 17.004 60.7684 17.04C60.5164 17.076 60.3544 17.094 60.2464 17.094ZM93.9315 23.016C93.3555 23.016 92.9595 22.926 92.7435 22.71C92.5275 22.494 92.4195 22.098 92.3835 21.504C92.2935 19.83 92.2575 18.678 92.2575 18.048C92.2575 17.166 92.3115 14.376 92.4375 9.696C92.4375 9.57 92.4555 9.426 92.4915 9.282C92.5095 9.138 92.5275 9.012 92.5635 8.904C92.5815 8.796 92.6175 8.67 92.6715 8.49C92.7075 8.31 92.7435 8.184 92.7795 8.076C92.8155 7.932 92.8875 7.824 93.0135 7.788C93.0495 7.788 93.1755 7.752 93.3735 7.698C93.5715 7.644 93.7155 7.608 93.7875 7.59C93.8595 7.572 93.9675 7.554 94.1475 7.518C94.3095 7.482 94.4355 7.482 94.5435 7.482C94.6515 7.482 94.7775 7.5 94.9215 7.536C95.0655 7.572 95.1915 7.608 95.3355 7.662C95.6775 7.842 95.8755 8.166 95.9115 8.634C95.9115 8.85 95.9295 9.57 95.9475 10.812C95.9475 12.054 95.9835 12.828 96.0195 13.134C96.0555 13.35 96.1815 13.584 96.3975 13.818C96.5055 13.944 96.6135 14.07 96.7395 14.196C96.8655 14.34 97.0095 14.484 97.1715 14.628C97.3155 14.79 97.4415 14.916 97.5495 14.988C97.6935 15.132 97.7835 15.294 97.8555 15.456C97.9275 15.636 97.9455 15.834 97.9275 16.05C97.9095 16.266 97.8915 16.428 97.8735 16.536C97.8375 16.644 97.8015 16.842 97.7295 17.094C97.6215 17.526 97.2435 17.76 96.5955 17.76C96.2535 17.76 96.0375 17.814 95.9655 17.904C95.8755 18.012 95.8395 18.246 95.8575 18.642C95.8575 18.912 95.8575 19.398 95.8755 20.082C95.8935 20.766 95.9115 21.234 95.9115 21.468C95.9115 21.954 95.7855 22.278 95.4975 22.44C94.7775 22.836 94.2555 23.034 93.9315 23.016ZM81.3135 10.308C81.4395 10.092 81.6375 9.948 81.8895 9.894C83.3655 9.624 84.4995 9.426 85.2915 9.318C86.4795 9.156 87.5775 9.138 88.6035 9.282C88.6215 9.282 88.6755 9.3 88.7835 9.3C88.8735 9.318 88.9455 9.336 88.9815 9.336C89.0175 9.336 89.0895 9.354 89.1615 9.372C89.2335 9.39 89.2875 9.408 89.3415 9.444C89.3955 9.48 89.4495 9.534 89.5035 9.57C89.5935 9.66 89.6835 9.84 89.7915 10.11C90.2415 11.406 90.4395 12.846 90.3675 14.466C90.3315 15.06 90.2415 15.924 90.0975 17.076C90.0615 17.328 90.0255 17.868 89.9715 18.732C89.9175 19.596 89.8275 20.244 89.7195 20.694C89.5935 21.198 89.4315 21.522 89.2515 21.702C89.1075 21.846 88.6755 21.954 87.9915 21.99C87.3075 22.044 86.6775 22.044 86.1375 22.008C85.8495 22.008 85.7055 21.918 85.6695 21.738C85.6335 21.666 85.6335 21.594 85.6695 21.486C85.6875 21.378 85.7235 21.27 85.7595 21.144C85.7955 21.036 85.8135 20.946 85.8135 20.892C85.8675 20.568 85.9215 20.244 85.9575 19.902C86.0295 19.308 86.0655 18.66 86.1015 17.958C86.1195 17.094 86.1015 15.816 86.0475 14.106C86.0295 13.854 85.9935 13.674 85.9395 13.566C85.7775 13.278 85.3995 13.206 84.8235 13.332C84.1575 13.494 82.9695 13.548 81.2595 13.476C81.1695 13.476 81.1155 13.458 81.0795 13.422C81.0255 13.386 81.0075 13.278 81.0255 13.134C81.1335 11.406 81.2235 10.452 81.3135 10.308ZM110.743 7.536C111.427 7.5 111.805 7.482 111.841 7.482C112.237 7.5 112.615 7.536 113.011 7.59C113.407 7.644 113.749 7.68 114.055 7.698C114.397 7.734 114.577 7.932 114.595 8.274C114.595 8.706 114.631 9.372 114.685 10.254C114.739 11.154 114.775 11.82 114.793 12.27C114.811 12.612 114.811 13.224 114.811 14.088C114.811 14.97 114.811 15.582 114.811 15.906C114.811 16.392 114.811 17.382 114.811 18.894C114.811 20.406 114.811 21.414 114.811 21.9V21.936C114.811 22.188 114.775 22.44 114.703 22.656C114.541 23.106 114.253 23.322 113.839 23.304C113.641 23.304 113.407 23.322 113.155 23.322C112.903 23.322 112.687 23.322 112.507 23.286C112.363 23.286 112.201 23.232 112.057 23.142C111.895 23.07 111.787 22.962 111.751 22.854C111.391 21.99 111.211 21.324 111.193 20.856C111.139 19.812 111.103 18.03 111.085 15.546C111.067 13.062 111.049 11.37 111.013 10.452C111.013 10.164 110.995 9.876 110.959 9.552C110.923 9.228 110.887 8.868 110.851 8.454L110.743 7.536ZM99.3135 10.308C99.4395 10.092 99.6375 9.948 99.8895 9.894C101.365 9.624 102.499 9.426 103.291 9.318C104.479 9.156 105.577 9.138 106.603 9.282C106.621 9.282 106.675 9.3 106.783 9.3C106.873 9.318 106.945 9.336 106.981 9.336C107.017 9.336 107.089 9.354 107.161 9.372C107.233 9.39 107.287 9.408 107.341 9.444C107.395 9.48 107.449 9.534 107.503 9.57C107.593 9.66 107.683 9.84 107.791 10.11C108.241 11.406 108.439 12.846 108.367 14.466C108.331 15.06 108.241 15.924 108.097 17.076C108.061 17.328 108.025 17.868 107.971 18.732C107.917 19.596 107.827 20.244 107.719 20.694C107.593 21.198 107.431 21.522 107.251 21.702C107.107 21.846 106.675 21.954 105.991 21.99C105.307 22.044 104.677 22.044 104.137 22.008C103.849 22.008 103.705 21.918 103.669 21.738C103.633 21.666 103.633 21.594 103.669 21.486C103.687 21.378 103.723 21.27 103.759 21.144C103.795 21.036 103.813 20.946 103.813 20.892C103.867 20.568 103.921 20.244 103.957 19.902C104.029 19.308 104.065 18.66 104.101 17.958C104.119 17.094 104.101 15.816 104.047 14.106C104.029 13.854 103.993 13.674 103.939 13.566C103.777 13.278 103.399 13.206 102.823 13.332C102.157 13.494 100.969 13.548 99.2595 13.476C99.1695 13.476 99.1155 13.458 99.0795 13.422C99.0255 13.386 99.0075 13.278 99.0255 13.134C99.1335 11.406 99.2235 10.452 99.3135 10.308Z" fill="#578246"/>
<path d="M11.7325 21.6385C11.6965 21.8185 11.6425 22.2865 11.5705 23.0245C11.4985 23.7625 11.4625 24.1945 11.4445 24.3025C11.3905 24.5725 11.2285 24.7345 10.9765 24.7705C10.7065 24.8245 10.0945 24.8605 9.12248 24.8785C8.97848 24.8785 8.88849 24.8425 8.81648 24.7705C8.74448 24.6985 8.69048 24.5905 8.69048 24.4465C8.67248 24.1405 8.67248 23.8525 8.69048 23.5825C8.69048 23.3305 8.69048 23.0965 8.69048 22.8805C8.67248 22.6645 8.65448 22.4845 8.61848 22.3225C8.58248 22.1785 8.52848 22.0525 8.43848 21.9445C8.33048 21.8545 8.20448 21.8005 8.04248 21.7645C7.82648 21.7285 6.94448 21.6925 5.39648 21.6385C3.84848 21.6025 2.91248 21.5665 2.58848 21.5665C2.37248 21.5665 2.21048 21.4405 2.10248 21.1705C1.86848 20.6665 1.85048 20.0545 2.04848 19.3165C2.06648 19.1905 2.22848 19.1005 2.53448 19.0285C2.57048 19.0105 2.93048 19.0105 3.61448 19.0105C4.29848 19.0105 4.65848 19.0105 4.69448 19.0105C5.07248 18.9925 6.18848 18.9565 8.02448 18.9205C9.86048 18.8845 10.9225 18.8485 11.2465 18.8305C11.6065 18.8305 12.6145 18.8125 14.2525 18.7945C15.8905 18.7945 16.8085 18.7765 17.0065 18.7765C17.2585 18.7765 17.4745 18.9385 17.6365 19.2985C17.8885 19.8385 17.9425 20.3605 17.7985 20.8645C17.7445 21.0445 17.6005 21.1885 17.3665 21.2785C17.0965 21.3865 16.1605 21.4765 14.5585 21.5125C12.9385 21.5485 12.1105 21.5845 12.0385 21.5845L11.7325 21.6385ZM8.09648 10.2265C9.55449 10.1365 10.3645 10.0825 10.5445 10.0645C10.8505 10.0645 11.1925 10.1725 11.5525 10.3525C11.6245 10.3885 11.6965 10.4785 11.7685 10.5865C11.8225 10.6945 11.8585 10.8025 11.8585 10.8745C11.8405 11.6305 11.9485 12.2785 12.1645 12.8545C12.2545 13.1425 12.4525 13.3225 12.7405 13.3945C13.5685 13.5925 14.6305 13.8625 15.8905 14.2225C16.1065 14.2945 16.2505 14.3665 16.3405 14.4565C16.4125 14.5645 16.4125 14.7085 16.3225 14.9065C16.2505 15.0505 16.1965 15.2305 16.1605 15.4825C16.1065 15.7345 16.0705 15.8965 16.0525 15.9685C15.9445 16.3465 15.7285 16.6165 15.4405 16.7785C15.1345 16.9405 14.7385 17.0485 14.2705 17.1025C14.1985 17.1205 13.9645 17.1565 13.6045 17.2285C13.2445 17.3005 12.9565 17.3185 12.7765 17.3185C12.4885 17.3185 12.2185 17.2285 11.9305 17.0125C11.5885 16.7605 11.2825 16.4545 11.0125 16.0945C10.5985 15.5905 10.0945 15.2305 9.48248 14.9785C9.23048 14.8705 8.96048 14.8885 8.63648 15.0145C8.02448 15.2665 7.26848 15.6085 6.40448 16.0405C6.36848 16.0585 6.31448 16.0765 6.26048 16.0945C6.00848 16.2385 5.81048 16.3285 5.66648 16.3825C5.52248 16.4545 5.32448 16.5085 5.09048 16.5625C4.83848 16.6165 4.62248 16.6345 4.40648 16.6165C4.13648 16.5985 3.95648 16.5445 3.86648 16.4725C3.75848 16.4005 3.70448 16.2565 3.66848 16.0225C3.63248 15.8065 3.57848 15.6085 3.50648 15.3925C3.21848 14.6005 3.48848 14.0065 4.33448 13.6285C6.42248 12.6925 7.50248 12.1885 7.59248 12.1525C7.80848 12.0625 7.97048 11.9365 8.04248 11.7745C8.11448 11.6125 8.16848 11.4145 8.18648 11.1625C8.18648 11.1265 8.15048 10.8205 8.09648 10.2265ZM35.8165 15.5725C35.7985 16.3285 35.6185 16.8505 35.2765 17.1385C35.1325 17.2465 34.9525 17.3365 34.7365 17.3725C34.5205 17.4085 34.3225 17.4265 34.1605 17.4085H33.9265L33.5305 17.3005C33.2785 17.2465 33.1705 17.0845 33.1705 16.8325C33.1705 14.8165 33.1705 13.4305 33.1345 12.7105C33.0805 11.9185 33.0625 10.9465 33.0625 9.79453C33.0625 9.56053 33.1345 9.36253 33.3145 9.20053C33.4765 9.05653 33.6925 8.96653 33.9445 8.96653L35.2225 9.09253L35.4025 9.23653C35.4745 9.29053 35.5645 9.39853 35.7085 9.56053C35.8345 9.72253 35.9065 9.88453 35.9065 10.0285V11.8105C35.8885 11.8105 35.8705 12.0265 35.8705 12.4405C35.8705 12.8725 35.8525 13.4305 35.8525 14.1145C35.8345 14.7985 35.8165 15.2845 35.8165 15.5725ZM31.8565 11.9725C32.1985 12.0445 32.4325 12.1345 32.5585 12.2425C32.6845 12.3505 32.7565 12.5665 32.7925 12.8545C32.7925 12.9985 32.8105 13.2145 32.8105 13.5025V13.9885C32.8105 14.2945 32.6125 14.5105 32.1985 14.6545C31.9105 14.7625 31.5685 14.8345 31.1725 14.8885C30.7045 14.9605 30.4345 14.7985 30.3625 14.4025C30.1825 13.6465 30.2905 12.8905 30.7225 12.1345C30.7585 12.0985 30.8125 12.0625 30.8845 12.0265C30.9565 12.0085 31.0825 11.9905 31.2445 11.9725C31.3885 11.9545 31.4965 11.9365 31.5325 11.9185C31.5325 11.9185 31.6405 11.9365 31.8565 11.9725ZM24.9265 11.5765C24.2785 11.4325 23.4685 11.4505 22.4965 11.6305C21.5245 11.8105 20.8405 11.9005 20.4805 11.8825C20.6065 10.8025 20.6965 10.0285 20.7685 9.56053C21.7225 9.43453 22.2265 9.36253 22.2985 9.36253C23.9185 9.27253 24.9625 9.23653 25.4665 9.25453C25.7185 9.27253 25.9705 9.30853 26.2225 9.34453C26.4745 9.39853 26.7985 9.47053 27.1945 9.56053C27.5725 9.66853 27.8245 9.72253 27.9685 9.74053C28.4005 9.84853 28.5625 10.1545 28.4185 10.6405C28.2745 11.1265 28.1665 11.4685 28.0945 11.6845C28.0225 11.9005 27.8785 12.1705 27.6985 12.5305C27.5185 12.8905 27.3025 13.1785 27.0505 13.4125C26.9785 13.4845 26.8885 13.5745 26.7805 13.6825C26.6545 13.7905 26.5645 13.8805 26.5285 13.9165C26.4925 13.9525 26.4385 14.0065 26.4025 14.0785C26.3665 14.1505 26.3485 14.2225 26.3665 14.2585C26.3845 14.3125 26.4205 14.3665 26.4925 14.4385C26.5465 14.5105 26.6365 14.5825 26.7625 14.6545C26.8345 14.7085 26.9425 14.8165 27.1225 14.9605C27.2845 15.1045 27.3925 15.2125 27.4285 15.2665C27.5905 15.5005 27.8065 15.7345 28.0585 15.9865C28.3105 16.2385 28.5085 16.4725 28.6705 16.7065C28.9585 17.1385 28.9045 17.4625 28.4725 17.6785C28.3285 17.7685 28.1305 17.8945 27.8785 18.0745C27.6265 18.2545 27.4465 18.3625 27.3565 18.4165C27.2665 18.4885 27.1945 18.5245 27.1225 18.5425C27.0505 18.5605 26.9605 18.5605 26.8705 18.5245C26.7805 18.4885 26.7265 18.4705 26.6905 18.4525C26.6545 18.4525 26.5825 18.3985 26.4565 18.3085C26.3305 18.2365 26.2585 18.1825 26.2405 18.1645C26.1505 18.1285 26.0965 18.0925 26.0785 18.0565C26.0425 18.0205 26.0245 18.0025 26.0245 17.9845C26.0245 17.9665 25.9885 17.9125 25.9345 17.8405C25.8625 17.7685 25.7725 17.6605 25.6465 17.5345C25.5925 17.4985 25.5025 17.3905 25.3585 17.1925C25.2145 17.0125 25.0705 16.8505 24.9625 16.7425C24.6025 16.3825 24.2065 16.2205 23.7745 16.2205C23.3425 16.2205 22.8205 16.4365 22.1725 16.8685C21.8125 17.1025 21.4345 17.4085 21.0385 17.7865C20.6785 18.1105 20.4625 18.0385 20.3545 17.5885C20.1205 16.6525 19.9945 16.0765 19.9585 15.8425C19.8865 15.4465 19.9405 15.0865 20.1205 14.7805C20.3005 14.4925 20.6065 14.2765 21.0205 14.1325C21.6325 13.9525 22.2085 13.7005 22.7305 13.3405C23.2345 12.9805 23.8285 12.5125 24.5125 11.9185C24.5125 11.9185 24.6565 11.8105 24.9265 11.5765ZM30.0025 23.4205C30.2905 23.4205 30.5425 23.3125 30.7585 23.0605C30.9745 22.8265 31.0825 22.5385 31.0825 22.1785C31.0825 21.6745 30.7945 21.3685 30.2545 21.2425C29.6605 21.1345 28.4905 21.0625 26.7445 21.0625H26.7265C26.5465 21.0625 26.4025 21.0985 26.2765 21.1525C26.1505 21.2245 26.0425 21.3145 25.9705 21.4405C25.8985 21.5665 25.8445 21.6745 25.8085 21.7645C25.7725 21.8725 25.7365 21.9985 25.7005 22.1785C25.6645 22.2685 25.6645 22.3405 25.6645 22.4125C25.6645 22.6105 25.7185 22.7725 25.8625 22.8805C26.0065 23.0065 26.1685 23.0785 26.3845 23.1145C26.5825 23.1685 26.8525 23.2045 27.2125 23.2405C27.5545 23.2765 27.8605 23.3125 28.1305 23.3125C28.3825 23.3305 28.7245 23.3485 29.1385 23.3665C29.5525 23.4025 29.8225 23.4205 29.9485 23.4205H30.0025ZM27.3565 19.2265C28.0405 19.2265 28.8685 19.2985 29.8045 19.4065C30.7405 19.5145 31.5325 19.6585 32.1805 19.8385C33.2785 20.1625 33.8905 20.7385 34.0165 21.5665C34.0525 21.7825 34.0705 21.9805 34.0705 22.1605C34.0705 22.9705 33.7465 23.6185 33.1165 24.0865C32.6845 24.4105 32.3245 24.6805 32.0365 24.8605C31.7485 25.0405 31.4065 25.2205 30.9745 25.3825C30.5425 25.5625 30.1105 25.6525 29.6785 25.6525C29.4985 25.6525 29.0665 25.6885 28.3645 25.7245C27.6625 25.7605 27.1945 25.7785 26.9605 25.7785C26.6185 25.7785 26.3125 25.7605 26.0605 25.7065C25.9885 25.7065 25.9165 25.7065 25.8085 25.6705C25.3045 25.5985 24.9085 25.5265 24.6565 25.4725C24.3865 25.4185 24.0625 25.3105 23.6845 25.1305C23.3065 24.9685 22.9825 24.7525 22.7305 24.4825C22.2445 24.0145 22.0105 23.5825 22.0105 23.1685C22.0105 22.3405 22.1185 21.7105 22.3705 21.2965C23.0365 20.1805 24.4225 19.4965 26.5105 19.2805C26.7805 19.2445 27.0685 19.2265 27.3565 19.2265ZM50.5765 24.8065C50.0005 24.8065 49.6045 24.7165 49.3885 24.5005C49.1725 24.2845 49.0645 23.8885 49.0285 23.2945C48.9385 21.6205 48.9025 20.4685 48.9025 19.8385C48.9025 18.9565 48.9565 16.1665 49.0825 11.4865C49.0825 11.3605 49.1005 11.2165 49.1365 11.0725C49.1545 10.9285 49.1725 10.8025 49.2085 10.6945C49.2265 10.5865 49.2625 10.4605 49.3165 10.2805C49.3525 10.1005 49.3885 9.97453 49.4245 9.86653C49.4605 9.72253 49.5325 9.61453 49.6585 9.57853C49.6945 9.57853 49.8205 9.54253 50.0185 9.48853C50.2165 9.43453 50.3605 9.39853 50.4325 9.38053C50.5045 9.36253 50.6125 9.34453 50.7925 9.30853C50.9545 9.27253 51.0805 9.27253 51.1885 9.27253C51.2965 9.27253 51.4225 9.29053 51.5665 9.32653C51.7105 9.36253 51.8365 9.39853 51.9805 9.45253C52.3225 9.63253 52.5205 9.95653 52.5565 10.4245C52.5565 10.6405 52.5745 11.3605 52.5925 12.6025C52.5925 13.8445 52.6285 14.6185 52.6645 14.9245C52.7005 15.1405 52.8265 15.3745 53.0425 15.6085C53.1505 15.7345 53.2585 15.8605 53.3845 15.9865C53.5105 16.1305 53.6545 16.2745 53.8165 16.4185C53.9605 16.5805 54.0865 16.7065 54.1945 16.7785C54.3385 16.9225 54.4285 17.0845 54.5005 17.2465C54.5725 17.4265 54.5905 17.6245 54.5725 17.8405C54.5545 18.0565 54.5365 18.2185 54.5185 18.3265C54.4825 18.4345 54.4465 18.6325 54.3745 18.8845C54.2665 19.3165 53.8885 19.5505 53.2405 19.5505C52.8985 19.5505 52.6825 19.6045 52.6105 19.6945C52.5205 19.8025 52.4845 20.0365 52.5025 20.4325C52.5025 20.7025 52.5025 21.1885 52.5205 21.8725C52.5385 22.5565 52.5565 23.0245 52.5565 23.2585C52.5565 23.7445 52.4305 24.0685 52.1425 24.2305C51.4225 24.6265 50.9005 24.8245 50.5765 24.8065ZM40.0285 17.7145C39.8845 17.6965 39.6865 17.6605 39.4705 17.6245C39.2545 17.5885 39.0565 17.5525 38.8945 17.5165C38.7145 17.4805 38.5705 17.4625 38.4265 17.4265C38.1025 17.3905 37.9405 17.2465 37.9225 16.9945C37.8505 16.3465 37.7605 15.5725 37.6525 14.6365C37.7965 14.6365 37.9945 14.6005 38.2465 14.5645C38.4985 14.5285 38.6965 14.5105 38.8585 14.4745C39.0205 14.4565 39.2005 14.4385 39.4165 14.4385C39.6325 14.4385 39.8305 14.4565 40.0105 14.4925C40.1905 14.5285 40.3165 14.5285 40.4245 14.5285C40.5145 14.5285 40.6585 14.5285 40.8385 14.4925C41.0185 14.4745 41.1625 14.4565 41.2705 14.4565C41.3785 14.4565 41.5765 14.4565 41.8465 14.4565C42.1165 14.4565 42.3325 14.4385 42.4765 14.4385C42.6205 14.4385 43.1065 14.4025 43.9525 14.3485C44.7985 14.3125 45.4465 14.2765 45.9145 14.2585C46.4545 14.2585 46.7785 14.3125 46.9045 14.4385C47.0125 14.5825 47.0485 14.9065 46.9945 15.4465C46.9225 16.0585 46.8325 16.5625 46.7065 16.9765C46.6705 17.0305 46.6345 17.0845 46.5805 17.1205C46.5085 17.1745 46.4365 17.2285 46.3285 17.2825C46.2205 17.3365 46.1485 17.3725 46.1125 17.3905C46.1665 17.6065 46.2745 17.9485 46.4545 18.3985C46.6165 18.8485 46.7425 19.2445 46.8325 19.6045C46.9045 19.9645 46.9405 20.3245 46.9045 20.6845C46.7965 22.0345 46.2385 23.0425 45.2665 23.7085C44.8705 23.9965 44.3845 24.0865 43.7725 24.0145C43.0165 23.9425 41.8285 23.7265 40.2445 23.3845C39.2365 23.1865 38.6785 22.5385 38.5525 21.4585C38.3725 20.0725 38.7325 18.9565 39.6505 18.1285C39.6505 18.1285 39.7765 17.9845 40.0285 17.7145ZM42.6925 21.7465C43.6645 21.7465 44.2945 21.3685 44.5645 20.6125C44.6365 20.3785 44.6185 20.1085 44.5105 19.7845C44.4025 19.4785 44.2405 19.3165 44.0605 19.2985C43.2865 19.2085 42.7105 19.1725 42.3145 19.2085C41.8645 19.2445 41.5225 19.4065 41.3065 19.6585C41.0905 19.9105 40.9825 20.2705 41.0185 20.7025C41.0185 21.0445 41.1085 21.2425 41.2525 21.2965C41.3965 21.3685 41.8645 21.5125 42.6925 21.7465ZM44.4565 13.1965C43.3405 13.6645 42.2605 13.7725 41.2525 13.5385C40.6405 13.3945 40.1365 13.1785 39.7045 12.8905C39.6325 12.8545 39.5965 12.7825 39.5605 12.6745C39.5245 12.5845 39.4885 12.4585 39.4705 12.2965C39.4345 12.1345 39.4165 12.0265 39.4165 11.9545C39.3445 11.7025 39.2905 11.5405 39.2905 11.4325C39.2365 11.3245 39.2185 11.2345 39.2545 11.1625C39.2905 11.0905 39.3805 11.0545 39.5605 11.0545C39.7045 11.0545 39.9025 11.0005 40.1905 10.9285C40.4605 10.8565 40.6585 10.8205 40.7665 10.8025C42.0985 10.6585 43.0705 10.5865 43.6825 10.5685C43.7905 10.5685 43.8985 10.6045 43.9705 10.6765C44.0425 10.7485 44.0965 10.8205 44.1145 10.8745C44.1325 10.9465 44.1505 11.0545 44.1865 11.1985C44.2225 11.3425 44.2405 11.4325 44.2405 11.4505C44.2765 11.6305 44.2945 11.7925 44.3305 11.9725C44.3485 12.1525 44.3665 12.3865 44.3845 12.6385C44.4025 12.8905 44.4205 13.0885 44.4565 13.1965ZM71.5825 10.0285C71.5825 10.0465 71.5825 10.0645 71.6185 10.0645C71.6545 10.1005 71.7265 10.1185 71.8345 10.1545C71.9425 10.1905 72.0325 10.2085 72.1045 10.2445C72.1765 10.2805 72.2125 10.3165 72.2305 10.3525C72.3205 10.6945 72.3565 11.0905 72.3385 11.5225C72.3205 11.6665 72.2305 12.6205 72.0865 14.3845C71.9605 15.7165 71.8525 17.0485 71.7445 18.3805C71.6185 19.6765 71.5465 20.4505 71.5465 20.7025C71.5105 20.9185 71.4925 21.2065 71.4745 21.5845C71.4565 21.9625 71.4385 22.3045 71.4205 22.6105C71.3845 22.9165 71.3665 23.2045 71.3305 23.4745C71.2945 23.7265 71.1145 24.0865 70.8265 24.5725C70.7545 24.6985 70.5925 24.7525 70.3405 24.7525C70.2865 24.7705 69.7645 24.7705 68.7565 24.7705C68.5765 24.7705 68.4325 24.7345 68.3245 24.6265C68.2165 24.5185 68.1445 24.3925 68.1445 24.2125L68.0185 22.3225C68.0185 22.2865 68.0005 22.1605 67.9825 21.9445C67.9465 21.7285 67.9465 21.5665 67.9645 21.4585C68.0005 20.9365 68.0725 20.4145 68.1805 19.8925C68.2345 19.5505 68.2165 19.3165 68.1085 19.2085C68.0005 19.1005 67.7845 19.0825 67.4605 19.1545C66.9565 19.2625 66.5425 19.1365 66.2185 18.8125C65.8765 18.4885 65.7505 18.0925 65.8405 17.5885C65.9125 17.1205 66.1105 16.7425 66.4345 16.4545C66.7405 16.1845 67.1365 16.0225 67.6405 15.9865C67.8745 15.9865 68.0905 15.8965 68.2705 15.7345C68.4505 15.5725 68.5585 15.3745 68.5765 15.1585C68.5945 14.7985 68.6305 14.2405 68.7025 13.4485C68.7565 12.6745 68.7925 12.0805 68.8285 11.6665C68.8465 11.4865 68.9005 11.1625 69.0085 10.7305C69.0985 10.3345 69.3505 10.1545 69.7645 10.1545C70.2325 10.1725 70.6825 10.1725 71.0965 10.1725C71.0965 10.1725 71.2585 10.1365 71.5825 10.0285ZM60.0985 18.8845C60.0985 18.9205 60.0805 19.0645 60.0805 19.3165C60.0805 19.5685 60.0625 19.7485 60.0625 19.8385C61.2145 19.7125 62.5285 19.7485 63.9865 19.9645C64.1665 20.0005 64.3105 20.0905 64.4005 20.2165C64.4725 20.3605 64.5085 20.5225 64.4905 20.7385C64.4725 20.9545 64.4365 21.1525 64.4005 21.3145C64.3645 21.4945 64.2925 21.7105 64.2205 21.9625C64.1305 22.2145 64.0765 22.3945 64.0765 22.4665C63.9685 22.8085 63.6985 23.0245 63.3025 23.1325C63.1945 23.1685 62.9245 23.2405 62.4745 23.3665C62.0245 23.4925 61.7185 23.5645 61.5745 23.6005C61.4305 23.6365 61.1605 23.6725 60.7825 23.7445C60.3865 23.8165 60.0805 23.8705 59.8645 23.8705C59.6485 23.8705 59.3785 23.8705 59.0725 23.8345C58.7485 23.7985 58.4605 23.7445 58.1905 23.6545C58.0465 23.6185 57.7945 23.5105 57.3985 23.3665C57.0025 23.2225 56.7145 23.1145 56.4985 23.0065C56.1385 22.8625 55.9585 22.5205 55.9945 21.9985C55.9945 21.4945 56.0665 20.8285 56.1925 20.0005C56.3005 19.1725 56.3725 18.5065 56.3905 17.9845C56.3545 16.8325 56.6785 16.2385 57.3805 16.2385C57.6865 16.2385 58.1185 16.2565 58.6585 16.3105C59.1985 16.3645 59.6845 16.3825 60.1345 16.3645C60.5665 16.3465 60.9805 16.2565 61.3765 16.0945C61.3765 16.0945 61.3765 15.9505 61.3405 15.6805C61.3045 15.4285 61.2685 15.1585 61.2325 14.8705C61.1965 14.5825 61.1785 14.4385 61.1785 14.4205C61.1785 14.4025 61.1605 14.3665 61.1245 14.3305C61.0885 14.2945 61.0525 14.2585 61.0345 14.2585C60.1345 14.0785 59.5585 13.9885 59.3425 13.9705C59.1985 13.9705 58.9825 13.9705 58.7305 14.0065C58.4785 14.0425 58.2985 14.0605 58.1905 14.0605C57.6685 14.0605 57.0025 14.0425 56.1925 14.0065C56.1205 14.0065 56.0485 13.9885 56.0125 13.9525C55.9585 13.9165 55.9225 13.8805 55.8865 13.8085C55.8505 13.7365 55.8325 13.6825 55.8325 13.6285C55.8325 13.5925 55.8145 13.5205 55.8145 13.4305C55.7965 13.3405 55.7965 13.2685 55.7965 13.2325C55.7605 13.1065 55.7425 12.9805 55.7425 12.8725C55.7425 12.7645 55.7425 12.6385 55.7785 12.5305C55.7965 12.4225 55.8145 12.3505 55.8325 12.2785C55.8325 12.2065 55.8685 12.1165 55.9225 11.9905C55.9585 11.8825 55.9945 11.7925 56.0305 11.7385C56.0485 11.7025 56.1025 11.5945 56.1925 11.4505C56.2645 11.3065 56.3185 11.2165 56.3545 11.1445C56.3905 11.0905 56.5525 11.0365 56.8585 10.9825C58.1545 10.7665 58.9465 10.6585 59.2345 10.6225C59.4325 10.6225 59.7205 10.6405 60.0985 10.6945C60.4585 10.7485 60.7105 10.7665 60.8545 10.7665C61.0345 10.7845 61.2865 10.7845 61.6465 10.7665C62.0065 10.7485 62.2765 10.7485 62.4565 10.7485C62.8345 10.7665 63.2125 10.8565 63.6085 11.0005C63.9865 11.1445 64.3285 11.3785 64.6165 11.7025C64.9045 12.0265 65.0305 12.3865 65.0305 12.8005C65.0125 13.1605 65.0305 13.8265 65.0845 14.7625C65.1205 15.6985 65.1385 16.3645 65.1385 16.7245C65.1385 16.8865 65.1205 17.0305 65.0845 17.1385C65.0485 17.2645 65.0305 17.3545 65.0125 17.4085C64.9765 17.4625 64.9405 17.5525 64.8685 17.6785C64.7965 17.8225 64.7245 17.9305 64.6885 18.0025C64.6165 18.1465 64.4725 18.2725 64.2745 18.3445C63.1945 18.7765 62.3125 18.9205 61.6285 18.7765C61.3945 18.7585 61.2325 18.7585 61.1245 18.7585C61.0165 18.7585 60.8545 18.7945 60.6205 18.8305C60.3685 18.8665 60.2065 18.8845 60.0985 18.8845ZM93.7835 24.8065C93.2075 24.8065 92.8115 24.7165 92.5955 24.5005C92.3795 24.2845 92.2715 23.8885 92.2355 23.2945C92.1455 21.6205 92.1095 20.4685 92.1095 19.8385C92.1095 18.9565 92.1635 16.1665 92.2895 11.4865C92.2895 11.3605 92.3075 11.2165 92.3435 11.0725C92.3615 10.9285 92.3795 10.8025 92.4155 10.6945C92.4335 10.5865 92.4695 10.4605 92.5235 10.2805C92.5595 10.1005 92.5955 9.97453 92.6315 9.86653C92.6675 9.72253 92.7395 9.61453 92.8655 9.57853C92.9015 9.57853 93.0275 9.54253 93.2255 9.48853C93.4235 9.43453 93.5675 9.39853 93.6395 9.38053C93.7115 9.36253 93.8195 9.34453 93.9995 9.30853C94.1615 9.27253 94.2875 9.27253 94.3955 9.27253C94.5035 9.27253 94.6295 9.29053 94.7735 9.32653C94.9175 9.36253 95.0435 9.39853 95.1875 9.45253C95.5295 9.63253 95.7275 9.95653 95.7635 10.4245C95.7635 10.6405 95.7815 11.3605 95.7995 12.6025C95.7995 13.8445 95.8355 14.6185 95.8715 14.9245C95.9075 15.1405 96.0335 15.3745 96.2495 15.6085C96.3575 15.7345 96.4655 15.8605 96.5915 15.9865C96.7175 16.1305 96.8615 16.2745 97.0235 16.4185C97.1675 16.5805 97.2935 16.7065 97.4015 16.7785C97.5455 16.9225 97.6355 17.0845 97.7075 17.2465C97.7795 17.4265 97.7975 17.6245 97.7795 17.8405C97.7615 18.0565 97.7435 18.2185 97.7255 18.3265C97.6895 18.4345 97.6535 18.6325 97.5815 18.8845C97.4735 19.3165 97.0955 19.5505 96.4475 19.5505C96.1055 19.5505 95.8895 19.6045 95.8175 19.6945C95.7275 19.8025 95.6915 20.0365 95.7095 20.4325C95.7095 20.7025 95.7095 21.1885 95.7275 21.8725C95.7455 22.5565 95.7635 23.0245 95.7635 23.2585C95.7635 23.7445 95.6375 24.0685 95.3495 24.2305C94.6295 24.6265 94.1075 24.8245 93.7835 24.8065ZM81.1655 12.0985C81.2915 11.8825 81.4895 11.7385 81.7415 11.6845C83.2175 11.4145 84.3515 11.2165 85.1435 11.1085C86.3315 10.9465 87.4295 10.9285 88.4555 11.0725C88.4735 11.0725 88.5275 11.0905 88.6355 11.0905C88.7255 11.1085 88.7975 11.1265 88.8335 11.1265C88.8695 11.1265 88.9415 11.1445 89.0135 11.1625C89.0855 11.1805 89.1395 11.1985 89.1935 11.2345C89.2475 11.2705 89.3015 11.3245 89.3555 11.3605C89.4455 11.4505 89.5355 11.6305 89.6435 11.9005C90.0935 13.1965 90.2915 14.6365 90.2195 16.2565C90.1835 16.8505 90.0935 17.7145 89.9495 18.8665C89.9135 19.1185 89.8775 19.6585 89.8235 20.5225C89.7695 21.3865 89.6795 22.0345 89.5715 22.4845C89.4455 22.9885 89.2835 23.3125 89.1035 23.4925C88.9595 23.6365 88.5275 23.7445 87.8435 23.7805C87.1595 23.8345 86.5295 23.8345 85.9895 23.7985C85.7015 23.7985 85.5575 23.7085 85.5215 23.5285C85.4855 23.4565 85.4855 23.3845 85.5215 23.2765C85.5395 23.1685 85.5755 23.0605 85.6115 22.9345C85.6475 22.8265 85.6655 22.7365 85.6655 22.6825C85.7195 22.3585 85.7735 22.0345 85.8095 21.6925C85.8815 21.0985 85.9175 20.4505 85.9535 19.7485C85.9715 18.8845 85.9535 17.6065 85.8995 15.8965C85.8815 15.6445 85.8455 15.4645 85.7915 15.3565C85.6295 15.0685 85.2515 14.9965 84.6755 15.1225C84.0095 15.2845 82.8215 15.3385 81.1115 15.2665C81.0215 15.2665 80.9675 15.2485 80.9315 15.2125C80.8775 15.1765 80.8595 15.0685 80.8775 14.9245C80.9855 13.1965 81.0755 12.2425 81.1655 12.0985ZM110.596 9.32653C111.28 9.29053 111.658 9.27253 111.694 9.27253C112.09 9.29053 112.468 9.32653 112.864 9.38053C113.26 9.43453 113.602 9.47053 113.908 9.48853C114.25 9.52453 114.43 9.72253 114.448 10.0645C114.448 10.4965 114.484 11.1625 114.538 12.0445C114.592 12.9445 114.628 13.6105 114.646 14.0605C114.664 14.4025 114.664 15.0145 114.664 15.8785C114.664 16.7605 114.664 17.3725 114.664 17.6965C114.664 18.1825 114.664 19.1725 114.664 20.6845C114.664 22.1965 114.664 23.2045 114.664 23.6905V23.7265C114.664 23.9785 114.628 24.2305 114.556 24.4465C114.394 24.8965 114.106 25.1125 113.692 25.0945C113.494 25.0945 113.26 25.1125 113.008 25.1125C112.756 25.1125 112.54 25.1125 112.36 25.0765C112.216 25.0765 112.054 25.0225 111.91 24.9325C111.748 24.8605 111.64 24.7525 111.604 24.6445C111.244 23.7805 111.064 23.1145 111.046 22.6465C110.992 21.6025 110.956 19.8205 110.938 17.3365C110.92 14.8525 110.902 13.1605 110.866 12.2425C110.866 11.9545 110.848 11.6665 110.812 11.3425C110.776 11.0185 110.74 10.6585 110.704 10.2445L110.596 9.32653ZM99.1655 12.0985C99.2915 11.8825 99.4895 11.7385 99.7415 11.6845C101.218 11.4145 102.352 11.2165 103.144 11.1085C104.332 10.9465 105.43 10.9285 106.456 11.0725C106.474 11.0725 106.528 11.0905 106.636 11.0905C106.726 11.1085 106.798 11.1265 106.834 11.1265C106.87 11.1265 106.942 11.1445 107.014 11.1625C107.086 11.1805 107.14 11.1985 107.194 11.2345C107.248 11.2705 107.302 11.3245 107.356 11.3605C107.446 11.4505 107.536 11.6305 107.644 11.9005C108.094 13.1965 108.292 14.6365 108.22 16.2565C108.184 16.8505 108.094 17.7145 107.95 18.8665C107.914 19.1185 107.878 19.6585 107.824 20.5225C107.77 21.3865 107.68 22.0345 107.572 22.4845C107.446 22.9885 107.284 23.3125 107.104 23.4925C106.96 23.6365 106.528 23.7445 105.844 23.7805C105.16 23.8345 104.53 23.8345 103.99 23.7985C103.702 23.7985 103.558 23.7085 103.522 23.5285C103.486 23.4565 103.486 23.3845 103.522 23.2765C103.54 23.1685 103.576 23.0605 103.612 22.9345C103.648 22.8265 103.666 22.7365 103.666 22.6825C103.72 22.3585 103.774 22.0345 103.81 21.6925C103.882 21.0985 103.918 20.4505 103.954 19.7485C103.972 18.8845 103.954 17.6065 103.9 15.8965C103.882 15.6445 103.846 15.4645 103.792 15.3565C103.63 15.0685 103.252 14.9965 102.676 15.1225C102.01 15.2845 100.822 15.3385 99.1115 15.2665C99.0215 15.2665 98.9675 15.2485 98.9315 15.2125C98.8775 15.1765 98.8595 15.0685 98.8775 14.9245C98.9855 13.1965 99.0755 12.2425 99.1655 12.0985Z" fill="white"/>
</svg>
