<svg width="48" height="48" viewBox="0 0 48 48" fill="none" xmlns="http://www.w3.org/2000/svg">
<rect width="48" height="48" rx="24" fill="#FDE0E9"/>
<path d="M30.79 19C30.3537 19 30 19.3537 30 19.79V28.63C30 30.4912 28.4912 32 26.63 32H20.95C19.0888 32 17.58 30.4912 17.58 28.63V19.79C17.58 19.3537 17.2263 19 16.79 19C16.3537 19 16 19.3537 16 19.79V28.63C16.0274 31.3719 18.258 33.5801 21 33.58H26.68C29.4025 33.5529 31.6029 31.3525 31.63 28.63V19.79C31.6304 19.5715 31.5404 19.3626 31.3812 19.2129C31.2221 19.0633 31.008 18.9862 30.79 19Z" fill="#F50E0E"/>
<path fill-rule="evenodd" clip-rule="evenodd" d="M30.79 17.58H16.79C16.3537 17.58 16 17.2263 16 16.79C16 16.3537 16.3537 16 16.79 16H19.44L20.62 14.72C21.0711 14.2614 21.6868 14.0022 22.33 14H25.25C25.8839 14 26.4918 14.2518 26.94 14.7L28.14 16H30.79C31.2263 16 31.58 16.3537 31.58 16.79C31.58 17.2263 31.2263 17.58 30.79 17.58ZM25.25 15.58H22.33C22.1301 15.5801 21.9374 15.655 21.79 15.79L21.6 15.99H25.98L25.79 15.79C25.6436 15.6533 25.4503 15.5781 25.25 15.58Z" fill="#F50E0E"/>
<path d="M20.04 20.79V23.79C20.04 24.2042 20.3758 24.54 20.79 24.54C21.2042 24.54 21.54 24.2042 21.54 23.79V20.79C21.54 20.3758 21.2042 20.04 20.79 20.04C20.3758 20.04 20.04 20.3758 20.04 20.79Z" fill="#F50E0E"/>
<path d="M23.04 20.79V28.79C23.04 29.2042 23.3758 29.54 23.79 29.54C24.2042 29.54 24.54 29.2042 24.54 28.79V20.79C24.54 20.3758 24.2042 20.04 23.79 20.04C23.3758 20.04 23.04 20.3758 23.04 20.79Z" fill="#F50E0E"/>
<path d="M26.04 20.79V23.79C26.04 24.2042 26.3758 24.54 26.79 24.54C27.2042 24.54 27.54 24.2042 27.54 23.79V20.79C27.54 20.3758 27.2042 20.04 26.79 20.04C26.3758 20.04 26.04 20.3758 26.04 20.79Z" fill="#F50E0E"/>
</svg>
