<svg width="41" height="46" viewBox="0 0 41 46" fill="none" xmlns="http://www.w3.org/2000/svg">
<path d="M15.7057 2.55908C14.9233 2.55908 12.0337 2.67908 11.2561 2.73188C8.4721 2.93348 0.484907 4.13348 0.168107 11.2519C-0.215893 19.8775 0.038504 33.6487 1.1329 37.3831C2.2273 41.1175 5.7841 44.4103 11.7505 44.9767C16.8193 45.4567 28.7425 46.5223 32.7313 43.8823C38.0497 40.3639 39.1681 37.8343 39.8113 28.8247C40.4545 19.8151 43.3489 7.13348 34.6609 4.10948C27.6385 1.66628 16.8961 2.55908 15.7009 2.55908H15.7057Z" fill="#418099"/>
<path d="M15.7057 0.15918C14.9233 0.15918 12.0337 0.27918 11.2561 0.33198C8.4721 0.53358 0.484907 1.73358 0.168107 8.85198C-0.215893 17.4776 0.038504 31.2488 1.1329 34.9832C2.2273 38.7176 5.7841 42.0104 11.7505 42.5768C16.8193 43.0568 28.7425 44.1224 32.7313 41.4824C38.0497 37.964 39.1681 35.4344 39.8113 26.4248C40.4545 17.4152 43.3489 4.73358 34.6609 1.70958C27.6385 -0.73362 16.8961 0.15918 15.7009 0.15918H15.7057Z" fill="#97CFDB"/>
<path d="M23.0887 30.2071C23.0359 30.4903 22.9591 30.9223 22.8631 31.5127C22.7671 32.1031 22.6999 32.4679 22.6663 32.6071C22.5943 32.9959 22.3687 33.2215 21.9799 33.2935C21.5911 33.3655 20.6839 33.4183 19.2583 33.4519C18.9079 33.4711 18.6967 33.2599 18.6247 32.8183V31.7095C18.6247 31.5847 18.6247 31.4599 18.6391 31.3255C18.6535 31.1911 18.6391 31.0903 18.6247 31.0231C18.6055 30.9511 18.6007 30.8887 18.6007 30.8263C18.6007 30.7639 18.5767 30.7159 18.5335 30.6823C18.4903 30.6487 18.4519 30.6151 18.4279 30.5911C18.4039 30.5623 18.3415 30.5383 18.2455 30.5095C18.1495 30.4807 18.0679 30.4663 18.0055 30.4567C17.9431 30.4471 17.8327 30.4279 17.6743 30.3895C17.3767 30.3367 16.0855 30.2743 13.8055 30.2071C11.5255 30.1351 10.1479 30.1015 9.67267 30.1015C9.37507 30.1015 9.13507 29.9143 8.95747 29.5495C8.62147 28.7911 8.59747 27.8791 8.87587 26.8039C8.90947 26.6119 9.14947 26.4679 9.59107 26.3815C9.64387 26.3479 10.1719 26.3335 11.1751 26.3431C12.1783 26.3527 12.7063 26.3575 12.7591 26.3575C13.3207 26.3383 14.9527 26.2999 17.6407 26.2375C20.3335 26.1751 21.9079 26.1367 22.3687 26.1175C22.9159 26.0839 24.3895 26.0551 26.7895 26.0359C29.1895 26.0167 30.5335 26.0119 30.8167 26.0119C31.2055 25.9927 31.5127 26.2519 31.7383 26.7751C32.1079 27.5479 32.1895 28.3255 31.9783 29.0983C31.9063 29.3623 31.6951 29.5543 31.3447 29.6791C30.9559 29.8375 29.5831 29.9527 27.2263 30.0199C24.8695 30.0919 23.6359 30.1255 23.5303 30.1255L23.0791 30.2071H23.0887ZM16.2775 14.5783L24.6199 14.1271V10.9591C24.9895 10.8727 25.3831 10.8055 25.8055 10.7623C26.2279 10.7191 26.5879 10.6999 26.8855 10.7095C27.1831 10.7191 27.5815 10.7287 28.0759 10.7383C28.5703 10.7479 28.9303 10.7527 29.1559 10.7527C29.2807 10.7527 29.4103 10.8295 29.5543 10.9783C29.6935 11.1271 29.7847 11.2663 29.8183 11.3863C30.2935 13.4791 30.5671 14.9335 30.6391 15.7447C30.6727 16.0279 30.6727 16.3111 30.6391 16.6039C30.6055 16.8919 30.5479 17.2615 30.4663 17.6983C30.3847 18.1399 30.3367 18.4183 30.3223 18.5431C30.2887 18.7015 30.0919 19.8103 29.7415 21.8695C28.5079 21.9751 27.8599 22.0279 27.7879 22.0279C22.7383 22.2199 19.7431 22.3159 18.8119 22.3159C17.4199 22.3159 15.4135 22.1671 12.7927 21.8647C12.0727 21.7783 11.4919 21.4903 11.0647 21.0055C10.6327 20.5207 10.4167 19.9351 10.4167 19.2487L10.3879 16.3207C10.3687 15.8983 10.3207 15.2839 10.2439 14.4727C10.1623 13.6615 10.1143 13.0663 10.0999 12.6775C10.0999 12.5527 10.1239 12.4183 10.1815 12.2695C10.2343 12.1207 10.3063 12.0199 10.3927 11.9671C11.4823 11.4391 12.5335 11.2567 13.5367 11.4151C14.5063 11.5543 15.0247 11.6263 15.0919 11.6263C15.5335 11.6263 15.8359 11.7319 16.0039 11.9431C16.1719 12.1543 16.2631 12.4615 16.2823 12.8647V14.5831L16.2775 14.5783ZM16.6183 16.8727C16.5991 16.9591 16.5751 17.1031 16.5367 17.2951C16.5031 17.4871 16.4743 17.6647 16.4551 17.8231C16.4359 17.9815 16.4359 18.1399 16.4551 18.2983C16.4743 19.0903 16.5799 19.5799 16.7719 19.7623C16.9639 19.9495 17.4487 20.0407 18.2263 20.0407C20.2855 20.0071 21.9991 19.9591 23.3719 19.9111C24.1111 19.8919 24.6103 19.7911 24.8647 19.6087C25.1191 19.4215 25.3159 19.0327 25.4599 18.4327C25.5991 17.8183 25.4935 17.2999 25.1431 16.8871C24.7927 16.4743 24.2743 16.2823 23.5831 16.3207C23.1607 16.3399 20.8375 16.5223 16.6135 16.8727H16.6183Z" fill="#418099"/>
<path d="M23.0887 31.647C23.0359 31.9302 22.9591 32.3622 22.8631 32.9526C22.7671 33.543 22.6999 33.9078 22.6663 34.047C22.5943 34.4358 22.3687 34.6614 21.9799 34.7334C21.5911 34.8054 20.6839 34.8582 19.2583 34.8918C18.9079 34.911 18.6967 34.6998 18.6247 34.2582V33.1494C18.6247 33.0246 18.6247 32.8998 18.6391 32.7654C18.6535 32.631 18.6391 32.5302 18.6247 32.463C18.6055 32.391 18.6007 32.3286 18.6007 32.2662C18.6007 32.2038 18.5767 32.1558 18.5335 32.1222C18.4903 32.0886 18.4519 32.055 18.4279 32.031C18.4039 32.0022 18.3415 31.9782 18.2455 31.9494C18.1495 31.9206 18.0679 31.9062 18.0055 31.8966C17.9431 31.887 17.8327 31.8678 17.6743 31.8294C17.3767 31.7766 16.0855 31.7142 13.8055 31.647C11.5255 31.575 10.1479 31.5414 9.67267 31.5414C9.37507 31.5414 9.13507 31.3542 8.95747 30.9894C8.62147 30.231 8.59747 29.319 8.87587 28.2438C8.90947 28.0518 9.14947 27.9078 9.59107 27.8214C9.64387 27.7878 10.1719 27.7734 11.1751 27.783C12.1783 27.7926 12.7063 27.7974 12.7591 27.7974C13.3207 27.7782 14.9527 27.7398 17.6407 27.6774C20.3335 27.615 21.9079 27.5766 22.3687 27.5574C22.9159 27.5238 24.3895 27.495 26.7895 27.4758C29.1895 27.4566 30.5335 27.4518 30.8167 27.4518C31.2055 27.4326 31.5127 27.6918 31.7383 28.215C32.1079 28.9878 32.1895 29.7654 31.9783 30.5382C31.9063 30.8022 31.6951 30.9942 31.3447 31.119C30.9559 31.2774 29.5831 31.3926 27.2263 31.4598C24.8695 31.5318 23.6359 31.5654 23.5303 31.5654L23.0791 31.647H23.0887ZM16.2775 16.0182L24.6199 15.567V12.399C24.9895 12.3126 25.3831 12.2454 25.8055 12.2022C26.2279 12.159 26.5879 12.1398 26.8855 12.1494C27.1831 12.159 27.5815 12.1686 28.0759 12.1782C28.5703 12.1878 28.9303 12.1926 29.1559 12.1926C29.2807 12.1926 29.4103 12.2694 29.5543 12.4182C29.6935 12.567 29.7847 12.7062 29.8183 12.8262C30.2935 14.919 30.5671 16.3734 30.6391 17.1846C30.6727 17.4678 30.6727 17.751 30.6391 18.0438C30.6055 18.3318 30.5479 18.7014 30.4663 19.1382C30.3847 19.5798 30.3367 19.8582 30.3223 19.983C30.2887 20.1414 30.0919 21.2502 29.7415 23.3094C28.5079 23.415 27.8599 23.4678 27.7879 23.4678C22.7383 23.6598 19.7431 23.7558 18.8119 23.7558C17.4199 23.7558 15.4135 23.607 12.7927 23.3046C12.0727 23.2182 11.4919 22.9302 11.0647 22.4454C10.6327 21.9606 10.4167 21.375 10.4167 20.6886L10.3879 17.7606C10.3687 17.3382 10.3207 16.7238 10.2439 15.9126C10.1623 15.1014 10.1143 14.5062 10.0999 14.1174C10.0999 13.9926 10.1239 13.8582 10.1815 13.7094C10.2343 13.5606 10.3063 13.4598 10.3927 13.407C11.4823 12.879 12.5335 12.6966 13.5367 12.855C14.5063 12.9942 15.0247 13.0662 15.0919 13.0662C15.5335 13.0662 15.8359 13.1718 16.0039 13.383C16.1719 13.5942 16.2631 13.9014 16.2823 14.3046V16.023L16.2775 16.0182ZM16.6183 18.3126C16.5991 18.399 16.5751 18.543 16.5367 18.735C16.5031 18.927 16.4743 19.1046 16.4551 19.263C16.4359 19.4214 16.4359 19.5798 16.4551 19.7382C16.4743 20.5302 16.5799 21.0198 16.7719 21.2022C16.9639 21.3894 17.4487 21.4806 18.2263 21.4806C20.2855 21.447 21.9991 21.399 23.3719 21.351C24.1111 21.3318 24.6103 21.231 24.8647 21.0486C25.1191 20.8614 25.3159 20.4726 25.4599 19.8726C25.5991 19.2582 25.4935 18.7398 25.1431 18.327C24.7927 17.9142 24.2743 17.7222 23.5831 17.7606C23.1607 17.7798 20.8375 17.9622 16.6135 18.3126H16.6183Z" fill="white"/>
</svg>
